G04 #@! TF.GenerationSoftware,KiCad,Pcbnew,(5.0.2)-1*
G04 #@! TF.CreationDate,2019-10-12T17:01:28+09:00*
G04 #@! TF.ProjectId,Motion,4d6f7469-6f6e-42e6-9b69-6361645f7063,rev?*
G04 #@! TF.SameCoordinates,Original*
G04 #@! TF.FileFunction,Copper,L2,Bot*
G04 #@! TF.FilePolarity,Positive*
%FSLAX46Y46*%
G04 Gerber Fmt 4.6, Leading zero omitted, Abs format (unit mm)*
G04 Created by KiCad (PCBNEW (5.0.2)-1) date 2019/10/12 17:01:28*
%MOMM*%
%LPD*%
G01*
G04 APERTURE LIST*
G04 #@! TA.AperFunction,ComponentPad*
%ADD10R,1.800000X1.800000*%
G04 #@! TD*
G04 #@! TA.AperFunction,ComponentPad*
%ADD11C,1.800000*%
G04 #@! TD*
G04 #@! TA.AperFunction,ComponentPad*
%ADD12O,1.050000X1.250000*%
G04 #@! TD*
G04 #@! TA.AperFunction,ComponentPad*
%ADD13R,2.100000X1.900000*%
G04 #@! TD*
G04 #@! TA.AperFunction,Conductor*
%ADD14C,0.100000*%
G04 #@! TD*
G04 #@! TA.AperFunction,ComponentPad*
%ADD15C,1.700000*%
G04 #@! TD*
G04 #@! TA.AperFunction,ComponentPad*
%ADD16O,1.950000X1.700000*%
G04 #@! TD*
G04 #@! TA.AperFunction,ComponentPad*
%ADD17C,0.712500*%
G04 #@! TD*
G04 #@! TA.AperFunction,ViaPad*
%ADD18C,0.600000*%
G04 #@! TD*
G04 #@! TA.AperFunction,Conductor*
%ADD19C,0.400000*%
G04 #@! TD*
G04 #@! TA.AperFunction,Conductor*
%ADD20C,0.200000*%
G04 #@! TD*
G04 #@! TA.AperFunction,Conductor*
%ADD21C,0.250000*%
G04 #@! TD*
G04 #@! TA.AperFunction,Conductor*
%ADD22C,0.254000*%
G04 #@! TD*
G04 APERTURE END LIST*
D10*
G04 #@! TO.P,J2,1*
G04 #@! TO.N,Net-(J2-Pad1)*
X155000000Y-102000000D03*
D11*
G04 #@! TO.P,J2,2*
G04 #@! TO.N,GND*
X152500000Y-102000000D03*
G04 #@! TO.P,J2,3*
G04 #@! TO.N,/XRES*
X150000000Y-102000000D03*
G04 #@! TO.P,J2,4*
G04 #@! TO.N,/SCLK*
X147500000Y-102000000D03*
G04 #@! TO.P,J2,5*
G04 #@! TO.N,/SWDIO*
X145000000Y-102000000D03*
G04 #@! TD*
D12*
G04 #@! TO.P,J3,5*
G04 #@! TO.N,GND*
X165325000Y-99250000D03*
X170175000Y-99250000D03*
D13*
X164100000Y-102250000D03*
X171400000Y-102250000D03*
G04 #@! TD*
D14*
G04 #@! TO.N,GND*
G04 #@! TO.C,J4*
G36*
X129899504Y-85401204D02*
X129923773Y-85404804D01*
X129947571Y-85410765D01*
X129970671Y-85419030D01*
X129992849Y-85429520D01*
X130013893Y-85442133D01*
X130033598Y-85456747D01*
X130051777Y-85473223D01*
X130068253Y-85491402D01*
X130082867Y-85511107D01*
X130095480Y-85532151D01*
X130105970Y-85554329D01*
X130114235Y-85577429D01*
X130120196Y-85601227D01*
X130123796Y-85625496D01*
X130125000Y-85650000D01*
X130125000Y-86850000D01*
X130123796Y-86874504D01*
X130120196Y-86898773D01*
X130114235Y-86922571D01*
X130105970Y-86945671D01*
X130095480Y-86967849D01*
X130082867Y-86988893D01*
X130068253Y-87008598D01*
X130051777Y-87026777D01*
X130033598Y-87043253D01*
X130013893Y-87057867D01*
X129992849Y-87070480D01*
X129970671Y-87080970D01*
X129947571Y-87089235D01*
X129923773Y-87095196D01*
X129899504Y-87098796D01*
X129875000Y-87100000D01*
X128425000Y-87100000D01*
X128400496Y-87098796D01*
X128376227Y-87095196D01*
X128352429Y-87089235D01*
X128329329Y-87080970D01*
X128307151Y-87070480D01*
X128286107Y-87057867D01*
X128266402Y-87043253D01*
X128248223Y-87026777D01*
X128231747Y-87008598D01*
X128217133Y-86988893D01*
X128204520Y-86967849D01*
X128194030Y-86945671D01*
X128185765Y-86922571D01*
X128179804Y-86898773D01*
X128176204Y-86874504D01*
X128175000Y-86850000D01*
X128175000Y-85650000D01*
X128176204Y-85625496D01*
X128179804Y-85601227D01*
X128185765Y-85577429D01*
X128194030Y-85554329D01*
X128204520Y-85532151D01*
X128217133Y-85511107D01*
X128231747Y-85491402D01*
X128248223Y-85473223D01*
X128266402Y-85456747D01*
X128286107Y-85442133D01*
X128307151Y-85429520D01*
X128329329Y-85419030D01*
X128352429Y-85410765D01*
X128376227Y-85404804D01*
X128400496Y-85401204D01*
X128425000Y-85400000D01*
X129875000Y-85400000D01*
X129899504Y-85401204D01*
X129899504Y-85401204D01*
G37*
D15*
G04 #@! TD*
G04 #@! TO.P,J4,1*
G04 #@! TO.N,GND*
X129150000Y-86250000D03*
D16*
G04 #@! TO.P,J4,2*
G04 #@! TO.N,VCC*
X129150000Y-88750000D03*
G04 #@! TO.P,J4,3*
G04 #@! TO.N,/CAN_H*
X129150000Y-91250000D03*
G04 #@! TO.P,J4,4*
G04 #@! TO.N,/CAN_L*
X129150000Y-93750000D03*
G04 #@! TD*
D17*
G04 #@! TO.P,U1,69*
G04 #@! TO.N,GND*
X146362500Y-92137500D03*
X147787500Y-92137500D03*
X149212500Y-92137500D03*
X150637500Y-92137500D03*
X146362500Y-90712500D03*
X147787500Y-90712500D03*
X149212500Y-90712500D03*
X150637500Y-90712500D03*
X146362500Y-89287500D03*
X147787500Y-89287500D03*
X149212500Y-89287500D03*
X150637500Y-89287500D03*
X146362500Y-87862500D03*
X147787500Y-87862500D03*
X149212500Y-87862500D03*
X150637500Y-87862500D03*
G04 #@! TD*
D18*
G04 #@! TO.N,GND*
X138000000Y-77500000D03*
X140000000Y-81500000D03*
X142000000Y-81500000D03*
X142000000Y-79500000D03*
X142000000Y-77500000D03*
X138000000Y-79500000D03*
X155000000Y-84000000D03*
X156500000Y-84000000D03*
X158000000Y-84000000D03*
X158000000Y-85750000D03*
X158000000Y-87250000D03*
X158000000Y-89000000D03*
X156500000Y-91000000D03*
X155000000Y-91000000D03*
X155000000Y-89750000D03*
X155000000Y-85250000D03*
X154250000Y-86250000D03*
X152600000Y-95100000D03*
X158000000Y-90000000D03*
X158000000Y-85000000D03*
X143500000Y-92000000D03*
X143500000Y-90750000D03*
X139000000Y-92250000D03*
X139000000Y-93250000D03*
X133000000Y-86000000D03*
X131750000Y-88000000D03*
X138000000Y-86500000D03*
X136000000Y-86250000D03*
X129250000Y-84000000D03*
X127250000Y-86250000D03*
X158250000Y-103250000D03*
X127750000Y-90000000D03*
X133000000Y-92250000D03*
X141250000Y-99000000D03*
X141250000Y-103000000D03*
X133750000Y-104250000D03*
X129250000Y-104000000D03*
X116000000Y-83000000D03*
X123000000Y-76000000D03*
X123000000Y-83000000D03*
X116000000Y-90000000D03*
X116000000Y-97000000D03*
X123000000Y-97000000D03*
X123000000Y-104000000D03*
X128000000Y-76000000D03*
X155000000Y-76000000D03*
X177000000Y-76000000D03*
X184000000Y-83000000D03*
X184000000Y-90000000D03*
X184000000Y-97000000D03*
X177000000Y-104000000D03*
X157000000Y-104000000D03*
X150000000Y-104000000D03*
X143000000Y-104000000D03*
X153500000Y-87500000D03*
X177000000Y-101000000D03*
X176500000Y-81500000D03*
X174500000Y-81500000D03*
X147700000Y-95225000D03*
X147575000Y-98225000D03*
X151150000Y-100625000D03*
X143950000Y-100775000D03*
X144000000Y-98750000D03*
X141150000Y-100500000D03*
X134150000Y-99225000D03*
X133700000Y-96800000D03*
X126500000Y-97000000D03*
X128300000Y-100200000D03*
X130300000Y-99200000D03*
X127600000Y-103500000D03*
X126500000Y-100400000D03*
X124900000Y-97700000D03*
X158000000Y-75750000D03*
X157000000Y-101500000D03*
X162000000Y-101750000D03*
X162000000Y-103750000D03*
X173500000Y-102250000D03*
X171500000Y-100250000D03*
X169050000Y-97550000D03*
X172500000Y-96750000D03*
X126500000Y-91250000D03*
X125000000Y-86500000D03*
X126750000Y-81750000D03*
X128500000Y-81500000D03*
X137000000Y-92500000D03*
X135250000Y-92500000D03*
X158000000Y-91000000D03*
X180000000Y-97000000D03*
X144000000Y-82250000D03*
X144000000Y-76750000D03*
X135000000Y-76750000D03*
X136000000Y-82250000D03*
X140000000Y-79500000D03*
X140000000Y-77500000D03*
X138095000Y-81405000D03*
X148500000Y-82000000D03*
X160000000Y-77500000D03*
X162500000Y-77500000D03*
X165000000Y-80000000D03*
X165000000Y-77500000D03*
X170000000Y-77500000D03*
X167500000Y-77500000D03*
X170000000Y-80000000D03*
X172500000Y-77500000D03*
X172500000Y-80000000D03*
X160000000Y-102500000D03*
X164000000Y-98500000D03*
X132750000Y-81750000D03*
X144000000Y-85750000D03*
X145000000Y-99500000D03*
X163500000Y-82000000D03*
X163250000Y-83750000D03*
X163250000Y-85250000D03*
X164250000Y-85250000D03*
X164250000Y-83750000D03*
X163250000Y-87250000D03*
X163250000Y-88500000D03*
X164250000Y-87250000D03*
X164250000Y-88500000D03*
X166500000Y-91500000D03*
X161250000Y-94000000D03*
X161250000Y-91000000D03*
X160750000Y-87500000D03*
X160750000Y-85000000D03*
X160750000Y-82750000D03*
X166500000Y-83750000D03*
X166500000Y-85250000D03*
X171000000Y-87250000D03*
X171500000Y-88750000D03*
X169250000Y-87000000D03*
X167750000Y-87000000D03*
X171750000Y-91750000D03*
X171750000Y-93000000D03*
X173250000Y-93000000D03*
X173250000Y-91000000D03*
X173250000Y-89000000D03*
X171250000Y-83750000D03*
X171250000Y-85250000D03*
X173500000Y-83750000D03*
X175500000Y-83750000D03*
X169000000Y-83750000D03*
X175750000Y-86750000D03*
X175750000Y-90250000D03*
X175750000Y-93500000D03*
X168250000Y-96000000D03*
X165250000Y-96000000D03*
X163000000Y-99250000D03*
X158500000Y-100250000D03*
X152500000Y-94000000D03*
X150500000Y-98750000D03*
X152500000Y-85750000D03*
X141250000Y-84500000D03*
X165000000Y-89250000D03*
G04 #@! TO.N,+3V3*
X134750000Y-100500000D03*
X141750000Y-90000000D03*
X141750000Y-93000000D03*
X141750000Y-86500000D03*
X152250000Y-97000000D03*
X141750000Y-94560000D03*
X140000000Y-90750000D03*
X140000000Y-93440000D03*
X140000000Y-94560000D03*
X131000000Y-77500000D03*
X145500000Y-78000000D03*
X147500000Y-83000000D03*
X156750000Y-92000000D03*
X167500000Y-82750000D03*
X137000000Y-76000000D03*
X153250000Y-82000000D03*
X170250000Y-82750000D03*
X174500000Y-85750000D03*
X174500000Y-94750000D03*
G04 #@! TO.N,Net-(C9-Pad2)*
X142493861Y-87258770D03*
X153538477Y-90052914D03*
G04 #@! TO.N,VCC*
X136000000Y-95500000D03*
X136000000Y-98500000D03*
G04 #@! TO.N,+5V*
X139750000Y-95500000D03*
X131750000Y-102250000D03*
G04 #@! TO.N,Net-(J3-Pad3)*
X166000000Y-97750000D03*
X167750000Y-97750000D03*
G04 #@! TO.N,/CAN_L*
X126000000Y-93750000D03*
G04 #@! TO.N,/CAN_TXD*
X143179767Y-101589883D03*
X134517736Y-102024224D03*
X128250000Y-101500000D03*
X130250000Y-103250000D03*
G04 #@! TO.N,/CAN_STB*
X145500000Y-95590000D03*
X128936342Y-96595010D03*
G04 #@! TO.N,/CAN_RXD*
X142500000Y-101250000D03*
X134500000Y-101250000D03*
G04 #@! TO.N,/SCLK*
X150000000Y-100250000D03*
G04 #@! TO.N,/SWDIO*
X149460000Y-99500000D03*
G04 #@! TO.N,/LED_2*
X144287403Y-97810000D03*
X139750000Y-98500000D03*
G04 #@! TO.N,/LED_1*
X143750000Y-97250000D03*
X138500000Y-98500000D03*
G04 #@! TO.N,/Flash_MISO*
X134760003Y-82500000D03*
X134750000Y-79000000D03*
G04 #@! TO.N,/Flash_CS*
X134000000Y-82500000D03*
X134000000Y-77500000D03*
G04 #@! TO.N,/Flash_CLK*
X145250000Y-82000000D03*
X145250000Y-80000000D03*
G04 #@! TO.N,/BMI_MOSI*
X153750000Y-98500000D03*
X172500000Y-93750000D03*
G04 #@! TO.N,/BMI_MISO*
X154500000Y-99250000D03*
X164250000Y-93750000D03*
G04 #@! TO.N,/BMI_ACCEL_CS*
X155250000Y-100000000D03*
X166250000Y-93750000D03*
G04 #@! TO.N,/BMI_GYRO_CS*
X155750000Y-94810000D03*
X171250000Y-86250000D03*
G04 #@! TO.N,/BMI_CLK*
X153250000Y-97750000D03*
X172750000Y-90000000D03*
G04 #@! TO.N,/BMI_INT_1*
X152250000Y-81250000D03*
X163750000Y-81250000D03*
G04 #@! TO.N,/BMI_INT_2*
X153250000Y-80500000D03*
X165000000Y-81250000D03*
G04 #@! TO.N,/BMI_INT_3*
X168834224Y-93017737D03*
X165000000Y-91310000D03*
X152000000Y-79750000D03*
X162250000Y-79750000D03*
G04 #@! TO.N,/BMI_INT_4*
X168060000Y-93000000D03*
X164250000Y-91750000D03*
X152000000Y-78750000D03*
X161500000Y-78750000D03*
G04 #@! TD*
D19*
G04 #@! TO.N,+3V3*
X141750000Y-90000000D02*
X141750000Y-93000000D01*
X141750000Y-90000000D02*
X141750000Y-86500000D01*
X151500000Y-96250000D02*
X152250000Y-97000000D01*
X151500000Y-96250000D02*
X152850000Y-96250000D01*
X154750000Y-94350000D02*
X154750000Y-93750000D01*
X152850000Y-96250000D02*
X154750000Y-94350000D01*
X140000000Y-94750000D02*
X140750000Y-95500000D01*
X140750000Y-95500000D02*
X140750000Y-96250000D01*
X140750000Y-96250000D02*
X140250000Y-96750000D01*
X140250000Y-96750000D02*
X137500000Y-96750000D01*
X137500000Y-96750000D02*
X137000000Y-97250000D01*
X134750000Y-100500000D02*
X136500000Y-100500000D01*
X137000000Y-100000000D02*
X137000000Y-99250000D01*
X136500000Y-100500000D02*
X137000000Y-100000000D01*
X137000000Y-97250000D02*
X137000000Y-99250000D01*
X137000000Y-99250000D02*
X137000000Y-99750000D01*
X141750000Y-94560000D02*
X144310000Y-94560000D01*
X144310000Y-94560000D02*
X144750000Y-95000000D01*
X145183198Y-96250000D02*
X145500000Y-96250000D01*
X144750000Y-95816802D02*
X145183198Y-96250000D01*
X144750000Y-95000000D02*
X144750000Y-95816802D01*
X151500000Y-96250000D02*
X145500000Y-96250000D01*
X140000000Y-90750000D02*
X140000000Y-93440000D01*
X140000000Y-94560000D02*
X140000000Y-94750000D01*
X131500000Y-76000000D02*
X131000000Y-76500000D01*
X131000000Y-76500000D02*
X131000000Y-77500000D01*
X145500000Y-76500000D02*
X145000000Y-76000000D01*
X145500000Y-78000000D02*
X145500000Y-76500000D01*
X145000000Y-76000000D02*
X137000000Y-76000000D01*
X154750000Y-93750000D02*
X154750000Y-93250000D01*
X154750000Y-93250000D02*
X154750000Y-92250000D01*
X154750000Y-92250000D02*
X155000000Y-92000000D01*
X155000000Y-92000000D02*
X156750000Y-92000000D01*
X167000000Y-82750000D02*
X167000000Y-82750000D01*
X137000000Y-76000000D02*
X131500000Y-76000000D01*
X162050000Y-81800000D02*
X163000000Y-82750000D01*
X153600000Y-81800000D02*
X162050000Y-81800000D01*
X163000000Y-82750000D02*
X167000000Y-82750000D01*
X141750000Y-85600000D02*
X142800000Y-84550000D01*
X141750000Y-86500000D02*
X141750000Y-85600000D01*
X142800000Y-84550000D02*
X145200000Y-84550000D01*
X145200000Y-84550000D02*
X146750000Y-83000000D01*
X167000000Y-82750000D02*
X167500000Y-82750000D01*
X146750000Y-83000000D02*
X152400000Y-83000000D01*
X152400000Y-83000000D02*
X153600000Y-81800000D01*
X167500000Y-82750000D02*
X170250000Y-82750000D01*
X174500000Y-85750000D02*
X174500000Y-94750000D01*
D20*
G04 #@! TO.N,Net-(C9-Pad2)*
X152730000Y-90000000D02*
X153724955Y-90000000D01*
X143750000Y-90000000D02*
X152730000Y-90000000D01*
X142493861Y-88743861D02*
X143750000Y-90000000D01*
X142493861Y-87258770D02*
X142493861Y-88743861D01*
D19*
G04 #@! TO.N,VCC*
X136000000Y-95500000D02*
X136000000Y-98500000D01*
G04 #@! TO.N,+5V*
X139089999Y-94839999D02*
X132410001Y-94839999D01*
X139750000Y-95500000D02*
X139089999Y-94839999D01*
X132410001Y-94839999D02*
X131750000Y-95500000D01*
X131750000Y-95500000D02*
X131750000Y-102250000D01*
D21*
G04 #@! TO.N,Net-(J3-Pad3)*
X166000000Y-97750000D02*
X167750000Y-97750000D01*
G04 #@! TO.N,/CAN_L*
X129150000Y-93750000D02*
X126464990Y-93750000D01*
X126464990Y-93750000D02*
X126000000Y-93750000D01*
D20*
G04 #@! TO.N,/CAN_TXD*
X143179767Y-101589883D02*
X142745426Y-102024224D01*
X142745426Y-102024224D02*
X134517736Y-102024224D01*
X130250000Y-103250000D02*
X128750000Y-103250000D01*
X128250000Y-102750000D02*
X128250000Y-101500000D01*
X128750000Y-103250000D02*
X128250000Y-102750000D01*
G04 #@! TO.N,/CAN_STB*
X145500000Y-95590000D02*
X145500000Y-95165736D01*
X145500000Y-95165736D02*
X145500000Y-94250000D01*
X145500000Y-94250000D02*
X145250000Y-94000000D01*
X145250000Y-94000000D02*
X132599448Y-94000000D01*
X132599448Y-94000000D02*
X132000000Y-94000000D01*
X132000000Y-94000000D02*
X131000000Y-95000000D01*
X131000000Y-95000000D02*
X131000000Y-96000000D01*
X131000000Y-96000000D02*
X130404990Y-96595010D01*
D21*
X130404990Y-96595010D02*
X128936342Y-96595010D01*
D20*
G04 #@! TO.N,/CAN_RXD*
X142500000Y-101250000D02*
X134500000Y-101250000D01*
G04 #@! TO.N,/SCLK*
X147500000Y-100727208D02*
X147977208Y-100250000D01*
X147500000Y-102000000D02*
X147500000Y-100727208D01*
X147977208Y-100250000D02*
X150000000Y-100250000D01*
G04 #@! TO.N,/SWDIO*
X145000000Y-100727208D02*
X146227208Y-99500000D01*
X145000000Y-102000000D02*
X145000000Y-100727208D01*
X146227208Y-99500000D02*
X149460000Y-99500000D01*
G04 #@! TO.N,/LED_2*
X144287403Y-97810000D02*
X141610003Y-97810000D01*
X141610003Y-97810000D02*
X139940000Y-97810000D01*
X139940000Y-97810000D02*
X139750000Y-98000000D01*
X139750000Y-98000000D02*
X139750000Y-98500000D01*
G04 #@! TO.N,/LED_1*
X143750000Y-97250000D02*
X141410000Y-97250000D01*
X141410000Y-97250000D02*
X139000000Y-97250000D01*
X139000000Y-97250000D02*
X138500000Y-97750000D01*
X138500000Y-97750000D02*
X138500000Y-98500000D01*
G04 #@! TO.N,/Flash_MISO*
X134760003Y-82500000D02*
X134760003Y-79010003D01*
X134760003Y-79010003D02*
X134750000Y-79000000D01*
G04 #@! TO.N,/Flash_CS*
X134000000Y-82500000D02*
X134000000Y-77500000D01*
G04 #@! TO.N,/Flash_CLK*
X145250000Y-82000000D02*
X145250000Y-80000000D01*
G04 #@! TO.N,/BMI_MOSI*
X153750000Y-98500000D02*
X156250000Y-98500000D01*
X156250000Y-98500000D02*
X157250000Y-97500000D01*
X157250000Y-97500000D02*
X157250000Y-96250000D01*
X157250000Y-96250000D02*
X157750000Y-95750000D01*
X157750000Y-95750000D02*
X162250000Y-95750000D01*
X162250000Y-95750000D02*
X163500000Y-94500000D01*
X163500000Y-94500000D02*
X163500000Y-91250000D01*
X163500000Y-91250000D02*
X164000000Y-90750000D01*
X164000000Y-90750000D02*
X171750000Y-90750000D01*
X171750000Y-90750000D02*
X172500000Y-91500000D01*
X172500000Y-91500000D02*
X172500000Y-93750000D01*
G04 #@! TO.N,/BMI_MISO*
X154500000Y-99250000D02*
X156750000Y-99250000D01*
X156750000Y-99250000D02*
X158000000Y-98000000D01*
X158000000Y-98000000D02*
X158000000Y-96750000D01*
X158000000Y-96750000D02*
X158500000Y-96250000D01*
X158500000Y-96250000D02*
X162750000Y-96250000D01*
X162750000Y-96250000D02*
X164250000Y-94750000D01*
X164250000Y-94750000D02*
X164250000Y-93750000D01*
G04 #@! TO.N,/BMI_ACCEL_CS*
X155250000Y-100000000D02*
X157250000Y-100000000D01*
X157250000Y-100000000D02*
X158750000Y-98500000D01*
X158750000Y-98500000D02*
X158750000Y-97250000D01*
X158750000Y-97250000D02*
X159250000Y-96750000D01*
X159250000Y-96750000D02*
X163250000Y-96750000D01*
X163250000Y-96750000D02*
X166250000Y-93750000D01*
G04 #@! TO.N,/BMI_GYRO_CS*
X155750000Y-94810000D02*
X161440000Y-94810000D01*
X161440000Y-94810000D02*
X162000000Y-94250000D01*
X162000000Y-94250000D02*
X162000000Y-87000000D01*
X162000000Y-87000000D02*
X162750000Y-86250000D01*
X162750000Y-86250000D02*
X171250000Y-86250000D01*
G04 #@! TO.N,/BMI_CLK*
X153250000Y-97750000D02*
X155750000Y-97750000D01*
X155750000Y-97750000D02*
X156500000Y-97000000D01*
X156500000Y-96000000D02*
X157250000Y-95250000D01*
X156500000Y-97000000D02*
X156500000Y-96000000D01*
X157250000Y-95250000D02*
X161750000Y-95250000D01*
X161750000Y-95250000D02*
X162750000Y-94250000D01*
X162750000Y-94250000D02*
X162750000Y-90750000D01*
X162750000Y-90750000D02*
X163500000Y-90000000D01*
X163500000Y-90000000D02*
X172750000Y-90000000D01*
G04 #@! TO.N,/BMI_INT_1*
X152250000Y-81250000D02*
X163750000Y-81250000D01*
G04 #@! TO.N,/BMI_INT_2*
X153250000Y-80500000D02*
X164250000Y-80500000D01*
X164250000Y-80500000D02*
X165000000Y-81250000D01*
G04 #@! TO.N,/BMI_INT_3*
X168834224Y-92593473D02*
X168490751Y-92250000D01*
X168834224Y-93017737D02*
X168834224Y-92593473D01*
X168490751Y-92250000D02*
X165940000Y-92250000D01*
X165940000Y-92250000D02*
X165000000Y-91310000D01*
X152000000Y-79750000D02*
X162250000Y-79750000D01*
G04 #@! TO.N,/BMI_INT_4*
X168060000Y-93000000D02*
X165500000Y-93000000D01*
X165500000Y-93000000D02*
X164250000Y-91750000D01*
X152000000Y-78750000D02*
X161500000Y-78750000D01*
G04 #@! TD*
D22*
G04 #@! TO.N,GND*
G36*
X131047959Y-75547959D02*
X131012979Y-75600310D01*
X130600310Y-76012979D01*
X130547959Y-76047959D01*
X130409380Y-76255358D01*
X130373000Y-76438251D01*
X130373000Y-76438254D01*
X130360718Y-76500000D01*
X130373000Y-76561747D01*
X130373001Y-77113967D01*
X130273000Y-77355391D01*
X130273000Y-77644609D01*
X130383679Y-77911813D01*
X130588187Y-78116321D01*
X130855391Y-78227000D01*
X131144609Y-78227000D01*
X131411813Y-78116321D01*
X131616321Y-77911813D01*
X131727000Y-77644609D01*
X131727000Y-77355391D01*
X133273000Y-77355391D01*
X133273000Y-77644609D01*
X133383679Y-77911813D01*
X133473001Y-78001135D01*
X133473000Y-81998866D01*
X133383679Y-82088187D01*
X133273000Y-82355391D01*
X133273000Y-82644609D01*
X133383679Y-82911813D01*
X133588187Y-83116321D01*
X133855391Y-83227000D01*
X134144609Y-83227000D01*
X134380002Y-83129498D01*
X134615394Y-83227000D01*
X134904612Y-83227000D01*
X135171816Y-83116321D01*
X135376324Y-82911813D01*
X135487003Y-82644609D01*
X135487003Y-82355391D01*
X135376324Y-82088187D01*
X135287003Y-81998866D01*
X135287003Y-79855391D01*
X144523000Y-79855391D01*
X144523000Y-80144609D01*
X144633679Y-80411813D01*
X144723001Y-80501135D01*
X144723000Y-81498866D01*
X144633679Y-81588187D01*
X144523000Y-81855391D01*
X144523000Y-82144609D01*
X144633679Y-82411813D01*
X144838187Y-82616321D01*
X145105391Y-82727000D01*
X145394609Y-82727000D01*
X145661813Y-82616321D01*
X145866321Y-82411813D01*
X145977000Y-82144609D01*
X145977000Y-81855391D01*
X145866321Y-81588187D01*
X145777000Y-81498866D01*
X145777000Y-80501134D01*
X145866321Y-80411813D01*
X145977000Y-80144609D01*
X145977000Y-79855391D01*
X145866321Y-79588187D01*
X145661813Y-79383679D01*
X145394609Y-79273000D01*
X145105391Y-79273000D01*
X144838187Y-79383679D01*
X144633679Y-79588187D01*
X144523000Y-79855391D01*
X135287003Y-79855391D01*
X135287003Y-79491131D01*
X135366321Y-79411813D01*
X135477000Y-79144609D01*
X135477000Y-78855391D01*
X135366321Y-78588187D01*
X135161813Y-78383679D01*
X134894609Y-78273000D01*
X134605391Y-78273000D01*
X134527000Y-78305470D01*
X134527000Y-78001134D01*
X134616321Y-77911813D01*
X134727000Y-77644609D01*
X134727000Y-77355391D01*
X134616321Y-77088187D01*
X134411813Y-76883679D01*
X134144609Y-76773000D01*
X133855391Y-76773000D01*
X133588187Y-76883679D01*
X133383679Y-77088187D01*
X133273000Y-77355391D01*
X131727000Y-77355391D01*
X131627000Y-77113969D01*
X131627000Y-76759711D01*
X131759711Y-76627000D01*
X136613969Y-76627000D01*
X136855391Y-76727000D01*
X137144609Y-76727000D01*
X137386031Y-76627000D01*
X144740289Y-76627000D01*
X144873001Y-76759712D01*
X144873000Y-77613968D01*
X144773000Y-77855391D01*
X144773000Y-78144609D01*
X144883679Y-78411813D01*
X145088187Y-78616321D01*
X145355391Y-78727000D01*
X145644609Y-78727000D01*
X145911813Y-78616321D01*
X146116321Y-78411813D01*
X146227000Y-78144609D01*
X146227000Y-77855391D01*
X146127000Y-77613969D01*
X146127000Y-76561746D01*
X146139282Y-76500000D01*
X146127000Y-76438254D01*
X146127000Y-76438250D01*
X146090620Y-76255357D01*
X145952041Y-76047959D01*
X145899690Y-76012979D01*
X145487021Y-75600310D01*
X145452041Y-75547959D01*
X145420674Y-75527000D01*
X176847394Y-75527000D01*
X177373000Y-76052606D01*
X177373000Y-81500000D01*
X177382667Y-81548601D01*
X177410197Y-81589803D01*
X178410197Y-82589803D01*
X178451399Y-82617333D01*
X178500000Y-82627000D01*
X183947394Y-82627000D01*
X184473000Y-83152606D01*
X184473001Y-96847393D01*
X183947394Y-97373000D01*
X178500000Y-97373000D01*
X178451399Y-97382667D01*
X178410197Y-97410197D01*
X177410197Y-98410197D01*
X177382667Y-98451399D01*
X177373000Y-98500000D01*
X177373000Y-103947394D01*
X176822394Y-104498000D01*
X172502000Y-104498000D01*
X172502000Y-104299439D01*
X172511834Y-104250000D01*
X172472873Y-104054130D01*
X172361921Y-103888079D01*
X172282483Y-103835000D01*
X172576309Y-103835000D01*
X172809698Y-103738327D01*
X172988327Y-103559699D01*
X173085000Y-103326310D01*
X173085000Y-102535750D01*
X172926250Y-102377000D01*
X171527000Y-102377000D01*
X171527000Y-102397000D01*
X171273000Y-102397000D01*
X171273000Y-102377000D01*
X169873750Y-102377000D01*
X169715000Y-102535750D01*
X169715000Y-103326310D01*
X169811673Y-103559699D01*
X169990302Y-103738327D01*
X170013655Y-103748000D01*
X165486345Y-103748000D01*
X165509698Y-103738327D01*
X165688327Y-103559699D01*
X165785000Y-103326310D01*
X165785000Y-102535750D01*
X165626250Y-102377000D01*
X164227000Y-102377000D01*
X164227000Y-102397000D01*
X163973000Y-102397000D01*
X163973000Y-102377000D01*
X162573750Y-102377000D01*
X162415000Y-102535750D01*
X162415000Y-103326310D01*
X162511673Y-103559699D01*
X162690302Y-103738327D01*
X162923691Y-103835000D01*
X163217517Y-103835000D01*
X163138079Y-103888079D01*
X163027127Y-104054130D01*
X162988166Y-104250000D01*
X162998000Y-104299439D01*
X162998000Y-104473000D01*
X123152606Y-104473000D01*
X122627000Y-103947394D01*
X122627000Y-101355391D01*
X127523000Y-101355391D01*
X127523000Y-101644609D01*
X127633679Y-101911813D01*
X127723001Y-102001135D01*
X127723000Y-102698102D01*
X127712677Y-102750000D01*
X127723000Y-102801898D01*
X127723000Y-102801902D01*
X127753577Y-102955624D01*
X127765966Y-102974165D01*
X127827734Y-103066607D01*
X127870055Y-103129945D01*
X127914055Y-103159345D01*
X128340656Y-103585947D01*
X128370055Y-103629945D01*
X128414052Y-103659343D01*
X128414055Y-103659346D01*
X128544374Y-103746423D01*
X128576387Y-103752791D01*
X128698097Y-103777000D01*
X128698101Y-103777000D01*
X128750000Y-103787323D01*
X128801899Y-103777000D01*
X129748866Y-103777000D01*
X129838187Y-103866321D01*
X130105391Y-103977000D01*
X130394609Y-103977000D01*
X130661813Y-103866321D01*
X130866321Y-103661813D01*
X130977000Y-103394609D01*
X130977000Y-103105391D01*
X130866321Y-102838187D01*
X130661813Y-102633679D01*
X130394609Y-102523000D01*
X130105391Y-102523000D01*
X129838187Y-102633679D01*
X129748866Y-102723000D01*
X128968291Y-102723000D01*
X128777000Y-102531710D01*
X128777000Y-102001134D01*
X128866321Y-101911813D01*
X128977000Y-101644609D01*
X128977000Y-101355391D01*
X128866321Y-101088187D01*
X128661813Y-100883679D01*
X128394609Y-100773000D01*
X128105391Y-100773000D01*
X127838187Y-100883679D01*
X127633679Y-101088187D01*
X127523000Y-101355391D01*
X122627000Y-101355391D01*
X122627000Y-98500000D01*
X122617333Y-98451399D01*
X122589803Y-98410197D01*
X121589803Y-97410197D01*
X121548601Y-97382667D01*
X121500000Y-97373000D01*
X116052606Y-97373000D01*
X115527000Y-96847394D01*
X115527000Y-96450401D01*
X128209342Y-96450401D01*
X128209342Y-96739619D01*
X128320021Y-97006823D01*
X128524529Y-97211331D01*
X128791733Y-97322010D01*
X129080951Y-97322010D01*
X129348155Y-97211331D01*
X129412476Y-97147010D01*
X130459355Y-97147010D01*
X130620370Y-97114982D01*
X130802960Y-96992980D01*
X130904950Y-96840340D01*
X131123000Y-96622290D01*
X131123001Y-101863966D01*
X131023000Y-102105391D01*
X131023000Y-102394609D01*
X131133679Y-102661813D01*
X131338187Y-102866321D01*
X131605391Y-102977000D01*
X131894609Y-102977000D01*
X132161813Y-102866321D01*
X132366321Y-102661813D01*
X132477000Y-102394609D01*
X132477000Y-102105391D01*
X132377000Y-101863969D01*
X132377000Y-95759711D01*
X132669713Y-95466999D01*
X135273000Y-95466999D01*
X135273000Y-95644609D01*
X135373000Y-95886032D01*
X135373001Y-98113966D01*
X135273000Y-98355391D01*
X135273000Y-98644609D01*
X135383679Y-98911813D01*
X135588187Y-99116321D01*
X135855391Y-99227000D01*
X136144609Y-99227000D01*
X136373001Y-99132397D01*
X136373001Y-99188245D01*
X136373000Y-99188250D01*
X136373000Y-99740289D01*
X136240289Y-99873000D01*
X135136031Y-99873000D01*
X134894609Y-99773000D01*
X134605391Y-99773000D01*
X134338187Y-99883679D01*
X134133679Y-100088187D01*
X134023000Y-100355391D01*
X134023000Y-100644609D01*
X134038891Y-100682975D01*
X133883679Y-100838187D01*
X133773000Y-101105391D01*
X133773000Y-101394609D01*
X133882316Y-101658521D01*
X133790736Y-101879615D01*
X133790736Y-102168833D01*
X133901415Y-102436037D01*
X134105923Y-102640545D01*
X134373127Y-102751224D01*
X134662345Y-102751224D01*
X134929549Y-102640545D01*
X135018870Y-102551224D01*
X142693528Y-102551224D01*
X142745426Y-102561547D01*
X142797324Y-102551224D01*
X142797329Y-102551224D01*
X142951051Y-102520647D01*
X143125371Y-102404169D01*
X143154771Y-102360169D01*
X143198057Y-102316883D01*
X143324376Y-102316883D01*
X143591580Y-102206204D01*
X143673000Y-102124784D01*
X143673000Y-102263957D01*
X143875024Y-102751685D01*
X144248315Y-103124976D01*
X144736043Y-103327000D01*
X145263957Y-103327000D01*
X145751685Y-103124976D01*
X146124976Y-102751685D01*
X146250000Y-102449851D01*
X146375024Y-102751685D01*
X146748315Y-103124976D01*
X147236043Y-103327000D01*
X147763957Y-103327000D01*
X148251685Y-103124976D01*
X148624976Y-102751685D01*
X148750000Y-102449851D01*
X148875024Y-102751685D01*
X149248315Y-103124976D01*
X149736043Y-103327000D01*
X150263957Y-103327000D01*
X150751685Y-103124976D01*
X150796502Y-103080159D01*
X151599446Y-103080159D01*
X151685852Y-103336643D01*
X152259336Y-103546458D01*
X152869460Y-103520839D01*
X153314148Y-103336643D01*
X153400554Y-103080159D01*
X152500000Y-102179605D01*
X151599446Y-103080159D01*
X150796502Y-103080159D01*
X151124976Y-102751685D01*
X151131230Y-102736587D01*
X151163357Y-102814148D01*
X151419841Y-102900554D01*
X152320395Y-102000000D01*
X151419841Y-101099446D01*
X151163357Y-101185852D01*
X151133221Y-101268221D01*
X151124976Y-101248315D01*
X150796502Y-100919841D01*
X151599446Y-100919841D01*
X152500000Y-101820395D01*
X153400554Y-100919841D01*
X153314148Y-100663357D01*
X152740664Y-100453542D01*
X152130540Y-100479161D01*
X151685852Y-100663357D01*
X151599446Y-100919841D01*
X150796502Y-100919841D01*
X150751685Y-100875024D01*
X150505205Y-100772929D01*
X150616321Y-100661813D01*
X150727000Y-100394609D01*
X150727000Y-100105391D01*
X150616321Y-99838187D01*
X150411813Y-99633679D01*
X150187000Y-99540559D01*
X150187000Y-99355391D01*
X150076321Y-99088187D01*
X149871813Y-98883679D01*
X149604609Y-98773000D01*
X149315391Y-98773000D01*
X149048187Y-98883679D01*
X148958866Y-98973000D01*
X146279105Y-98973000D01*
X146227207Y-98962677D01*
X146175309Y-98973000D01*
X146175305Y-98973000D01*
X146021583Y-99003577D01*
X146018918Y-99005358D01*
X145891263Y-99090654D01*
X145891260Y-99090657D01*
X145847263Y-99120055D01*
X145817864Y-99164053D01*
X144664053Y-100317865D01*
X144620056Y-100347263D01*
X144590658Y-100391260D01*
X144590654Y-100391264D01*
X144517999Y-100500000D01*
X144503578Y-100521583D01*
X144473460Y-100673000D01*
X144462677Y-100727208D01*
X144473001Y-100779110D01*
X144473001Y-100781956D01*
X144248315Y-100875024D01*
X143875024Y-101248315D01*
X143850104Y-101308477D01*
X143796088Y-101178070D01*
X143591580Y-100973562D01*
X143324376Y-100862883D01*
X143126550Y-100862883D01*
X143116321Y-100838187D01*
X142911813Y-100633679D01*
X142644609Y-100523000D01*
X142355391Y-100523000D01*
X142088187Y-100633679D01*
X141998866Y-100723000D01*
X137163711Y-100723000D01*
X137399691Y-100487020D01*
X137452041Y-100452041D01*
X137590620Y-100244643D01*
X137627000Y-100061750D01*
X137627000Y-100061746D01*
X137639282Y-100000000D01*
X137627000Y-99938254D01*
X137627000Y-97509711D01*
X137759711Y-97377000D01*
X138115414Y-97377000D01*
X138090655Y-97414055D01*
X138090654Y-97414056D01*
X138062879Y-97455625D01*
X138003577Y-97544376D01*
X137973000Y-97698098D01*
X137973000Y-97698102D01*
X137962677Y-97750000D01*
X137973000Y-97801898D01*
X137973000Y-97998866D01*
X137883679Y-98088187D01*
X137773000Y-98355391D01*
X137773000Y-98644609D01*
X137883679Y-98911813D01*
X138088187Y-99116321D01*
X138355391Y-99227000D01*
X138644609Y-99227000D01*
X138911813Y-99116321D01*
X139116321Y-98911813D01*
X139125000Y-98890860D01*
X139133679Y-98911813D01*
X139338187Y-99116321D01*
X139605391Y-99227000D01*
X139894609Y-99227000D01*
X140161813Y-99116321D01*
X140366321Y-98911813D01*
X140477000Y-98644609D01*
X140477000Y-98355391D01*
X140469382Y-98337000D01*
X143786269Y-98337000D01*
X143875590Y-98426321D01*
X144142794Y-98537000D01*
X144432012Y-98537000D01*
X144699216Y-98426321D01*
X144903724Y-98221813D01*
X145014403Y-97954609D01*
X145014403Y-97665391D01*
X144903724Y-97398187D01*
X144699216Y-97193679D01*
X144475122Y-97100857D01*
X144366321Y-96838187D01*
X144161813Y-96633679D01*
X143894609Y-96523000D01*
X143605391Y-96523000D01*
X143338187Y-96633679D01*
X143248866Y-96723000D01*
X141170674Y-96723000D01*
X141202041Y-96702041D01*
X141340620Y-96494643D01*
X141377000Y-96311750D01*
X141377000Y-96311746D01*
X141389282Y-96250000D01*
X141377000Y-96188254D01*
X141377000Y-95561745D01*
X141389282Y-95499999D01*
X141377000Y-95438251D01*
X141377000Y-95438250D01*
X141340620Y-95255357D01*
X141202041Y-95047959D01*
X141149694Y-95012982D01*
X140727000Y-94590289D01*
X140727000Y-94527000D01*
X141023000Y-94527000D01*
X141023000Y-94704609D01*
X141133679Y-94971813D01*
X141338187Y-95176321D01*
X141605391Y-95287000D01*
X141894609Y-95287000D01*
X142136031Y-95187000D01*
X144050289Y-95187000D01*
X144123000Y-95259712D01*
X144123000Y-95755056D01*
X144110718Y-95816802D01*
X144123000Y-95878548D01*
X144123000Y-95878552D01*
X144138331Y-95955625D01*
X144159380Y-96061444D01*
X144255720Y-96205626D01*
X144297960Y-96268843D01*
X144350307Y-96303820D01*
X144696178Y-96649692D01*
X144731157Y-96702041D01*
X144938555Y-96840620D01*
X145121448Y-96877000D01*
X145121452Y-96877000D01*
X145183197Y-96889282D01*
X145244942Y-96877000D01*
X151240289Y-96877000D01*
X151533679Y-97170391D01*
X151633679Y-97411813D01*
X151838187Y-97616321D01*
X152105391Y-97727000D01*
X152394609Y-97727000D01*
X152523000Y-97673819D01*
X152523000Y-97894609D01*
X152633679Y-98161813D01*
X152838187Y-98366321D01*
X153023000Y-98442873D01*
X153023000Y-98644609D01*
X153133679Y-98911813D01*
X153338187Y-99116321D01*
X153605391Y-99227000D01*
X153773000Y-99227000D01*
X153773000Y-99394609D01*
X153883679Y-99661813D01*
X154088187Y-99866321D01*
X154355391Y-99977000D01*
X154523000Y-99977000D01*
X154523000Y-100144609D01*
X154633679Y-100411813D01*
X154838187Y-100616321D01*
X154954828Y-100664635D01*
X154100000Y-100664635D01*
X153933393Y-100697775D01*
X153792150Y-100792150D01*
X153697775Y-100933393D01*
X153664635Y-101100000D01*
X153664635Y-101127905D01*
X153580159Y-101099446D01*
X152679605Y-102000000D01*
X153580159Y-102900554D01*
X153664635Y-102872095D01*
X153664635Y-102900000D01*
X153697775Y-103066607D01*
X153792150Y-103207850D01*
X153933393Y-103302225D01*
X154100000Y-103335365D01*
X155900000Y-103335365D01*
X156066607Y-103302225D01*
X156207850Y-103207850D01*
X156302225Y-103066607D01*
X156335365Y-102900000D01*
X156335365Y-101173690D01*
X162415000Y-101173690D01*
X162415000Y-101964250D01*
X162573750Y-102123000D01*
X163973000Y-102123000D01*
X163973000Y-100823750D01*
X164227000Y-100823750D01*
X164227000Y-102123000D01*
X165626250Y-102123000D01*
X165785000Y-101964250D01*
X165785000Y-101173690D01*
X169715000Y-101173690D01*
X169715000Y-101964250D01*
X169873750Y-102123000D01*
X171273000Y-102123000D01*
X171273000Y-100823750D01*
X171527000Y-100823750D01*
X171527000Y-102123000D01*
X172926250Y-102123000D01*
X173085000Y-101964250D01*
X173085000Y-101173690D01*
X172988327Y-100940301D01*
X172809698Y-100761673D01*
X172576309Y-100665000D01*
X171685750Y-100665000D01*
X171527000Y-100823750D01*
X171273000Y-100823750D01*
X171114250Y-100665000D01*
X170223691Y-100665000D01*
X169990302Y-100761673D01*
X169811673Y-100940301D01*
X169715000Y-101173690D01*
X165785000Y-101173690D01*
X165688327Y-100940301D01*
X165509698Y-100761673D01*
X165276309Y-100665000D01*
X164385750Y-100665000D01*
X164227000Y-100823750D01*
X163973000Y-100823750D01*
X163814250Y-100665000D01*
X162923691Y-100665000D01*
X162690302Y-100761673D01*
X162511673Y-100940301D01*
X162415000Y-101173690D01*
X156335365Y-101173690D01*
X156335365Y-101100000D01*
X156302225Y-100933393D01*
X156207850Y-100792150D01*
X156066607Y-100697775D01*
X155900000Y-100664635D01*
X155545172Y-100664635D01*
X155661813Y-100616321D01*
X155751134Y-100527000D01*
X157198102Y-100527000D01*
X157250000Y-100537323D01*
X157301898Y-100527000D01*
X157301903Y-100527000D01*
X157455625Y-100496423D01*
X157629945Y-100379945D01*
X157659345Y-100335945D01*
X158437389Y-99557901D01*
X164184963Y-99557901D01*
X164351303Y-99978349D01*
X164665880Y-100303136D01*
X165019190Y-100468964D01*
X165198000Y-100343163D01*
X165198000Y-99377000D01*
X165452000Y-99377000D01*
X165452000Y-100343163D01*
X165630810Y-100468964D01*
X165984120Y-100303136D01*
X166298697Y-99978349D01*
X166465037Y-99557901D01*
X169034963Y-99557901D01*
X169201303Y-99978349D01*
X169515880Y-100303136D01*
X169869190Y-100468964D01*
X170048000Y-100343163D01*
X170048000Y-99377000D01*
X170302000Y-99377000D01*
X170302000Y-100343163D01*
X170480810Y-100468964D01*
X170834120Y-100303136D01*
X171148697Y-99978349D01*
X171315037Y-99557901D01*
X171174774Y-99377000D01*
X170302000Y-99377000D01*
X170048000Y-99377000D01*
X169175226Y-99377000D01*
X169034963Y-99557901D01*
X166465037Y-99557901D01*
X166324774Y-99377000D01*
X165452000Y-99377000D01*
X165198000Y-99377000D01*
X164325226Y-99377000D01*
X164184963Y-99557901D01*
X158437389Y-99557901D01*
X159053191Y-98942099D01*
X164184963Y-98942099D01*
X164325226Y-99123000D01*
X165198000Y-99123000D01*
X165198000Y-99103000D01*
X165452000Y-99103000D01*
X165452000Y-99123000D01*
X166324774Y-99123000D01*
X166465037Y-98942099D01*
X169034963Y-98942099D01*
X169175226Y-99123000D01*
X170048000Y-99123000D01*
X170048000Y-98156837D01*
X170302000Y-98156837D01*
X170302000Y-99123000D01*
X171174774Y-99123000D01*
X171315037Y-98942099D01*
X171148697Y-98521651D01*
X170834120Y-98196864D01*
X170480810Y-98031036D01*
X170302000Y-98156837D01*
X170048000Y-98156837D01*
X169869190Y-98031036D01*
X169515880Y-98196864D01*
X169201303Y-98521651D01*
X169034963Y-98942099D01*
X166465037Y-98942099D01*
X166298697Y-98521651D01*
X166223714Y-98444234D01*
X166411813Y-98366321D01*
X166476134Y-98302000D01*
X167273866Y-98302000D01*
X167338187Y-98366321D01*
X167605391Y-98477000D01*
X167894609Y-98477000D01*
X168161813Y-98366321D01*
X168366321Y-98161813D01*
X168477000Y-97894609D01*
X168477000Y-97605391D01*
X168366321Y-97338187D01*
X168161813Y-97133679D01*
X167894609Y-97023000D01*
X167605391Y-97023000D01*
X167338187Y-97133679D01*
X167273866Y-97198000D01*
X166476134Y-97198000D01*
X166411813Y-97133679D01*
X166144609Y-97023000D01*
X165855391Y-97023000D01*
X165588187Y-97133679D01*
X165383679Y-97338187D01*
X165273000Y-97605391D01*
X165273000Y-97894609D01*
X165312512Y-97990000D01*
X165197998Y-97990000D01*
X165197998Y-98156836D01*
X165019190Y-98031036D01*
X164665880Y-98196864D01*
X164351303Y-98521651D01*
X164184963Y-98942099D01*
X159053191Y-98942099D01*
X159085945Y-98909345D01*
X159129945Y-98879945D01*
X159246423Y-98705625D01*
X159277000Y-98551903D01*
X159277000Y-98551899D01*
X159287323Y-98500001D01*
X159277000Y-98448103D01*
X159277000Y-97468290D01*
X159468291Y-97277000D01*
X163198102Y-97277000D01*
X163250000Y-97287323D01*
X163301898Y-97277000D01*
X163301903Y-97277000D01*
X163455625Y-97246423D01*
X163629945Y-97129945D01*
X163659345Y-97085945D01*
X166268291Y-94477000D01*
X166394609Y-94477000D01*
X166661813Y-94366321D01*
X166866321Y-94161813D01*
X166977000Y-93894609D01*
X166977000Y-93605391D01*
X166944530Y-93527000D01*
X167558866Y-93527000D01*
X167648187Y-93616321D01*
X167915391Y-93727000D01*
X168204609Y-93727000D01*
X168425701Y-93635421D01*
X168689615Y-93744737D01*
X168978833Y-93744737D01*
X169246037Y-93634058D01*
X169450545Y-93429550D01*
X169561224Y-93162346D01*
X169561224Y-92873128D01*
X169450545Y-92605924D01*
X169355024Y-92510403D01*
X169330647Y-92387848D01*
X169265759Y-92290737D01*
X169243570Y-92257528D01*
X169243567Y-92257525D01*
X169214169Y-92213528D01*
X169170171Y-92184129D01*
X168900096Y-91914055D01*
X168870696Y-91870055D01*
X168696376Y-91753577D01*
X168542654Y-91723000D01*
X168542649Y-91723000D01*
X168490751Y-91712677D01*
X168438853Y-91723000D01*
X166158291Y-91723000D01*
X165727000Y-91291710D01*
X165727000Y-91277000D01*
X171531710Y-91277000D01*
X171973000Y-91718291D01*
X171973001Y-93248865D01*
X171883679Y-93338187D01*
X171773000Y-93605391D01*
X171773000Y-93894609D01*
X171883679Y-94161813D01*
X172088187Y-94366321D01*
X172355391Y-94477000D01*
X172644609Y-94477000D01*
X172911813Y-94366321D01*
X173116321Y-94161813D01*
X173227000Y-93894609D01*
X173227000Y-93605391D01*
X173116321Y-93338187D01*
X173027000Y-93248866D01*
X173027000Y-91551897D01*
X173037323Y-91499999D01*
X173027000Y-91448101D01*
X173027000Y-91448097D01*
X172996423Y-91294375D01*
X172964382Y-91246422D01*
X172909346Y-91164055D01*
X172909343Y-91164052D01*
X172879945Y-91120055D01*
X172835948Y-91090657D01*
X172378175Y-90632884D01*
X172605391Y-90727000D01*
X172894609Y-90727000D01*
X173161813Y-90616321D01*
X173366321Y-90411813D01*
X173477000Y-90144609D01*
X173477000Y-89855391D01*
X173366321Y-89588187D01*
X173161813Y-89383679D01*
X172894609Y-89273000D01*
X172605391Y-89273000D01*
X172338187Y-89383679D01*
X172248866Y-89473000D01*
X163551897Y-89473000D01*
X163499999Y-89462677D01*
X163448101Y-89473000D01*
X163448097Y-89473000D01*
X163294375Y-89503577D01*
X163294373Y-89503578D01*
X163294374Y-89503578D01*
X163164055Y-89590654D01*
X163164052Y-89590657D01*
X163120055Y-89620055D01*
X163090656Y-89664053D01*
X162527000Y-90227710D01*
X162527000Y-87218290D01*
X162968291Y-86777000D01*
X170748866Y-86777000D01*
X170838187Y-86866321D01*
X171105391Y-86977000D01*
X171394609Y-86977000D01*
X171661813Y-86866321D01*
X171866321Y-86661813D01*
X171977000Y-86394609D01*
X171977000Y-86105391D01*
X171866321Y-85838187D01*
X171661813Y-85633679D01*
X171593520Y-85605391D01*
X173773000Y-85605391D01*
X173773000Y-85894609D01*
X173873000Y-86136032D01*
X173873001Y-94363966D01*
X173773000Y-94605391D01*
X173773000Y-94894609D01*
X173883679Y-95161813D01*
X174088187Y-95366321D01*
X174355391Y-95477000D01*
X174644609Y-95477000D01*
X174911813Y-95366321D01*
X175116321Y-95161813D01*
X175227000Y-94894609D01*
X175227000Y-94605391D01*
X175127000Y-94363969D01*
X175127000Y-86136031D01*
X175227000Y-85894609D01*
X175227000Y-85605391D01*
X175116321Y-85338187D01*
X174911813Y-85133679D01*
X174644609Y-85023000D01*
X174355391Y-85023000D01*
X174088187Y-85133679D01*
X173883679Y-85338187D01*
X173773000Y-85605391D01*
X171593520Y-85605391D01*
X171394609Y-85523000D01*
X171105391Y-85523000D01*
X170838187Y-85633679D01*
X170748866Y-85723000D01*
X162801897Y-85723000D01*
X162749999Y-85712677D01*
X162698101Y-85723000D01*
X162698097Y-85723000D01*
X162544375Y-85753577D01*
X162544373Y-85753578D01*
X162544374Y-85753578D01*
X162414055Y-85840654D01*
X162414052Y-85840657D01*
X162370055Y-85870055D01*
X162340656Y-85914053D01*
X161664053Y-86590657D01*
X161620056Y-86620055D01*
X161590658Y-86664052D01*
X161590654Y-86664056D01*
X161503578Y-86794375D01*
X161462677Y-87000000D01*
X161473001Y-87051903D01*
X161473000Y-94031709D01*
X161221710Y-94283000D01*
X156251134Y-94283000D01*
X156161813Y-94193679D01*
X155894609Y-94083000D01*
X155605391Y-94083000D01*
X155377000Y-94177602D01*
X155377000Y-92627000D01*
X156363969Y-92627000D01*
X156605391Y-92727000D01*
X156894609Y-92727000D01*
X157161813Y-92616321D01*
X157366321Y-92411813D01*
X157477000Y-92144609D01*
X157477000Y-91855391D01*
X157366321Y-91588187D01*
X157161813Y-91383679D01*
X156894609Y-91273000D01*
X156605391Y-91273000D01*
X156363969Y-91373000D01*
X155061744Y-91373000D01*
X154999999Y-91360718D01*
X154938254Y-91373000D01*
X154938250Y-91373000D01*
X154755357Y-91409380D01*
X154547959Y-91547959D01*
X154512979Y-91600310D01*
X154350308Y-91762981D01*
X154297960Y-91797959D01*
X154262982Y-91850307D01*
X154262981Y-91850308D01*
X154159380Y-92005358D01*
X154110718Y-92250000D01*
X154123001Y-92311751D01*
X154123000Y-93188249D01*
X154123000Y-94090289D01*
X152590289Y-95623000D01*
X151561746Y-95623000D01*
X151500000Y-95610718D01*
X151438254Y-95623000D01*
X146227000Y-95623000D01*
X146227000Y-95445391D01*
X146116321Y-95178187D01*
X146027000Y-95088866D01*
X146027000Y-94301897D01*
X146037323Y-94249999D01*
X146027000Y-94198101D01*
X146027000Y-94198097D01*
X145996423Y-94044375D01*
X145879945Y-93870055D01*
X145835942Y-93840653D01*
X145659346Y-93664056D01*
X145629945Y-93620055D01*
X145455625Y-93503577D01*
X145301903Y-93473000D01*
X145301898Y-93473000D01*
X145250000Y-93462677D01*
X145198102Y-93473000D01*
X142305134Y-93473000D01*
X142366321Y-93411813D01*
X142477000Y-93144609D01*
X142477000Y-92855391D01*
X142463571Y-92822970D01*
X145856635Y-92822970D01*
X145875897Y-93023317D01*
X146251925Y-93142103D01*
X146644787Y-93107947D01*
X146849103Y-93023317D01*
X146868365Y-92822970D01*
X147281635Y-92822970D01*
X147300897Y-93023317D01*
X147676925Y-93142103D01*
X148069787Y-93107947D01*
X148274103Y-93023317D01*
X148293365Y-92822970D01*
X148706635Y-92822970D01*
X148725897Y-93023317D01*
X149101925Y-93142103D01*
X149494787Y-93107947D01*
X149699103Y-93023317D01*
X149718365Y-92822970D01*
X150131635Y-92822970D01*
X150150897Y-93023317D01*
X150526925Y-93142103D01*
X150919787Y-93107947D01*
X151124103Y-93023317D01*
X151143365Y-92822970D01*
X150637500Y-92317105D01*
X150131635Y-92822970D01*
X149718365Y-92822970D01*
X149212500Y-92317105D01*
X148706635Y-92822970D01*
X148293365Y-92822970D01*
X147787500Y-92317105D01*
X147281635Y-92822970D01*
X146868365Y-92822970D01*
X146362500Y-92317105D01*
X145856635Y-92822970D01*
X142463571Y-92822970D01*
X142377000Y-92613969D01*
X142377000Y-92026925D01*
X145357897Y-92026925D01*
X145392053Y-92419787D01*
X145476683Y-92624103D01*
X145677030Y-92643365D01*
X146182895Y-92137500D01*
X146542105Y-92137500D01*
X146816354Y-92411749D01*
X146817053Y-92419787D01*
X146901683Y-92624103D01*
X147042220Y-92637615D01*
X147047970Y-92643365D01*
X147075000Y-92640766D01*
X147102030Y-92643365D01*
X147107780Y-92637615D01*
X147248317Y-92624103D01*
X147306973Y-92438422D01*
X147607895Y-92137500D01*
X147967105Y-92137500D01*
X148241354Y-92411749D01*
X148242053Y-92419787D01*
X148326683Y-92624103D01*
X148467220Y-92637615D01*
X148472970Y-92643365D01*
X148500000Y-92640766D01*
X148527030Y-92643365D01*
X148532780Y-92637615D01*
X148673317Y-92624103D01*
X148731973Y-92438422D01*
X149032895Y-92137500D01*
X149392105Y-92137500D01*
X149666354Y-92411749D01*
X149667053Y-92419787D01*
X149751683Y-92624103D01*
X149892220Y-92637615D01*
X149897970Y-92643365D01*
X149925000Y-92640766D01*
X149952030Y-92643365D01*
X149957780Y-92637615D01*
X150098317Y-92624103D01*
X150156973Y-92438422D01*
X150457895Y-92137500D01*
X150817105Y-92137500D01*
X151322970Y-92643365D01*
X151523317Y-92624103D01*
X151642103Y-92248075D01*
X151607947Y-91855213D01*
X151523317Y-91650897D01*
X151322970Y-91631635D01*
X150817105Y-92137500D01*
X150457895Y-92137500D01*
X150183646Y-91863251D01*
X150182947Y-91855213D01*
X150098317Y-91650897D01*
X149957780Y-91637385D01*
X149952030Y-91631635D01*
X149925000Y-91634234D01*
X149897970Y-91631635D01*
X149892220Y-91637385D01*
X149751683Y-91650897D01*
X149693027Y-91836578D01*
X149392105Y-92137500D01*
X149032895Y-92137500D01*
X148758646Y-91863251D01*
X148757947Y-91855213D01*
X148673317Y-91650897D01*
X148532780Y-91637385D01*
X148527030Y-91631635D01*
X148500000Y-91634234D01*
X148472970Y-91631635D01*
X148467220Y-91637385D01*
X148326683Y-91650897D01*
X148268027Y-91836578D01*
X147967105Y-92137500D01*
X147607895Y-92137500D01*
X147333646Y-91863251D01*
X147332947Y-91855213D01*
X147248317Y-91650897D01*
X147107780Y-91637385D01*
X147102030Y-91631635D01*
X147075000Y-91634234D01*
X147047970Y-91631635D01*
X147042220Y-91637385D01*
X146901683Y-91650897D01*
X146843027Y-91836578D01*
X146542105Y-92137500D01*
X146182895Y-92137500D01*
X145677030Y-91631635D01*
X145476683Y-91650897D01*
X145357897Y-92026925D01*
X142377000Y-92026925D01*
X142377000Y-91397970D01*
X145856635Y-91397970D01*
X145859234Y-91425000D01*
X145856635Y-91452030D01*
X145862385Y-91457780D01*
X145875897Y-91598317D01*
X146061578Y-91656973D01*
X146362500Y-91957895D01*
X146636749Y-91683646D01*
X146644787Y-91682947D01*
X146849103Y-91598317D01*
X146862615Y-91457780D01*
X146868365Y-91452030D01*
X146865766Y-91425000D01*
X146868365Y-91397970D01*
X147281635Y-91397970D01*
X147284234Y-91425000D01*
X147281635Y-91452030D01*
X147287385Y-91457780D01*
X147300897Y-91598317D01*
X147486578Y-91656973D01*
X147787500Y-91957895D01*
X148061749Y-91683646D01*
X148069787Y-91682947D01*
X148274103Y-91598317D01*
X148287615Y-91457780D01*
X148293365Y-91452030D01*
X148290766Y-91425000D01*
X148293365Y-91397970D01*
X148706635Y-91397970D01*
X148709234Y-91425000D01*
X148706635Y-91452030D01*
X148712385Y-91457780D01*
X148725897Y-91598317D01*
X148911578Y-91656973D01*
X149212500Y-91957895D01*
X149486749Y-91683646D01*
X149494787Y-91682947D01*
X149699103Y-91598317D01*
X149712615Y-91457780D01*
X149718365Y-91452030D01*
X149715766Y-91425000D01*
X149718365Y-91397970D01*
X150131635Y-91397970D01*
X150134234Y-91425000D01*
X150131635Y-91452030D01*
X150137385Y-91457780D01*
X150150897Y-91598317D01*
X150336578Y-91656973D01*
X150637500Y-91957895D01*
X150911749Y-91683646D01*
X150919787Y-91682947D01*
X151124103Y-91598317D01*
X151137615Y-91457780D01*
X151143365Y-91452030D01*
X151140766Y-91425000D01*
X151143365Y-91397970D01*
X151137615Y-91392220D01*
X151124103Y-91251683D01*
X150938422Y-91193027D01*
X150637500Y-90892105D01*
X150363251Y-91166354D01*
X150355213Y-91167053D01*
X150150897Y-91251683D01*
X150137385Y-91392220D01*
X150131635Y-91397970D01*
X149718365Y-91397970D01*
X149712615Y-91392220D01*
X149699103Y-91251683D01*
X149513422Y-91193027D01*
X149212500Y-90892105D01*
X148938251Y-91166354D01*
X148930213Y-91167053D01*
X148725897Y-91251683D01*
X148712385Y-91392220D01*
X148706635Y-91397970D01*
X148293365Y-91397970D01*
X148287615Y-91392220D01*
X148274103Y-91251683D01*
X148088422Y-91193027D01*
X147787500Y-90892105D01*
X147513251Y-91166354D01*
X147505213Y-91167053D01*
X147300897Y-91251683D01*
X147287385Y-91392220D01*
X147281635Y-91397970D01*
X146868365Y-91397970D01*
X146862615Y-91392220D01*
X146849103Y-91251683D01*
X146663422Y-91193027D01*
X146362500Y-90892105D01*
X146088251Y-91166354D01*
X146080213Y-91167053D01*
X145875897Y-91251683D01*
X145862385Y-91392220D01*
X145856635Y-91397970D01*
X142377000Y-91397970D01*
X142377000Y-90386031D01*
X142477000Y-90144609D01*
X142477000Y-89855391D01*
X142377000Y-89613969D01*
X142377000Y-89372290D01*
X143340656Y-90335947D01*
X143370055Y-90379945D01*
X143414052Y-90409343D01*
X143414055Y-90409346D01*
X143544374Y-90496423D01*
X143576387Y-90502791D01*
X143698097Y-90527000D01*
X143698101Y-90527000D01*
X143750000Y-90537323D01*
X143801899Y-90527000D01*
X145381566Y-90527000D01*
X145357897Y-90601925D01*
X145392053Y-90994787D01*
X145476683Y-91199103D01*
X145677030Y-91218365D01*
X146182895Y-90712500D01*
X146168753Y-90698358D01*
X146340110Y-90527000D01*
X146356605Y-90527000D01*
X146362500Y-90532895D01*
X146368395Y-90527000D01*
X146384890Y-90527000D01*
X146556248Y-90698358D01*
X146542105Y-90712500D01*
X146816354Y-90986749D01*
X146817053Y-90994787D01*
X146901683Y-91199103D01*
X147042220Y-91212615D01*
X147047970Y-91218365D01*
X147075000Y-91215766D01*
X147102030Y-91218365D01*
X147107780Y-91212615D01*
X147248317Y-91199103D01*
X147306973Y-91013422D01*
X147607895Y-90712500D01*
X147593753Y-90698358D01*
X147765110Y-90527000D01*
X147781605Y-90527000D01*
X147787500Y-90532895D01*
X147793395Y-90527000D01*
X147809890Y-90527000D01*
X147981248Y-90698358D01*
X147967105Y-90712500D01*
X148241354Y-90986749D01*
X148242053Y-90994787D01*
X148326683Y-91199103D01*
X148467220Y-91212615D01*
X148472970Y-91218365D01*
X148500000Y-91215766D01*
X148527030Y-91218365D01*
X148532780Y-91212615D01*
X148673317Y-91199103D01*
X148731973Y-91013422D01*
X149032895Y-90712500D01*
X149018753Y-90698358D01*
X149190110Y-90527000D01*
X149206605Y-90527000D01*
X149212500Y-90532895D01*
X149218395Y-90527000D01*
X149234890Y-90527000D01*
X149406248Y-90698358D01*
X149392105Y-90712500D01*
X149666354Y-90986749D01*
X149667053Y-90994787D01*
X149751683Y-91199103D01*
X149892220Y-91212615D01*
X149897970Y-91218365D01*
X149925000Y-91215766D01*
X149952030Y-91218365D01*
X149957780Y-91212615D01*
X150098317Y-91199103D01*
X150156973Y-91013422D01*
X150457895Y-90712500D01*
X150443753Y-90698358D01*
X150615110Y-90527000D01*
X150631605Y-90527000D01*
X150637500Y-90532895D01*
X150643395Y-90527000D01*
X150659890Y-90527000D01*
X150831248Y-90698358D01*
X150817105Y-90712500D01*
X151322970Y-91218365D01*
X151523317Y-91199103D01*
X151642103Y-90823075D01*
X151616362Y-90527000D01*
X152984429Y-90527000D01*
X153126664Y-90669235D01*
X153393868Y-90779914D01*
X153683086Y-90779914D01*
X153950290Y-90669235D01*
X154154798Y-90464727D01*
X154265477Y-90197523D01*
X154265477Y-89908305D01*
X154224235Y-89808737D01*
X154221378Y-89794375D01*
X154213243Y-89782200D01*
X154154798Y-89641101D01*
X153950290Y-89436593D01*
X153683086Y-89325914D01*
X153393868Y-89325914D01*
X153126664Y-89436593D01*
X153090257Y-89473000D01*
X151618434Y-89473000D01*
X151642103Y-89398075D01*
X151607947Y-89005213D01*
X151523317Y-88800897D01*
X151322970Y-88781635D01*
X150817105Y-89287500D01*
X150831248Y-89301643D01*
X150659890Y-89473000D01*
X150643395Y-89473000D01*
X150637500Y-89467105D01*
X150631605Y-89473000D01*
X150615110Y-89473000D01*
X150443753Y-89301643D01*
X150457895Y-89287500D01*
X150183646Y-89013251D01*
X150182947Y-89005213D01*
X150098317Y-88800897D01*
X149957780Y-88787385D01*
X149952030Y-88781635D01*
X149925000Y-88784234D01*
X149897970Y-88781635D01*
X149892220Y-88787385D01*
X149751683Y-88800897D01*
X149693027Y-88986578D01*
X149392105Y-89287500D01*
X149406248Y-89301643D01*
X149234890Y-89473000D01*
X149218395Y-89473000D01*
X149212500Y-89467105D01*
X149206605Y-89473000D01*
X149190110Y-89473000D01*
X149018753Y-89301643D01*
X149032895Y-89287500D01*
X148758646Y-89013251D01*
X148757947Y-89005213D01*
X148673317Y-88800897D01*
X148532780Y-88787385D01*
X148527030Y-88781635D01*
X148500000Y-88784234D01*
X148472970Y-88781635D01*
X148467220Y-88787385D01*
X148326683Y-88800897D01*
X148268027Y-88986578D01*
X147967105Y-89287500D01*
X147981248Y-89301643D01*
X147809890Y-89473000D01*
X147793395Y-89473000D01*
X147787500Y-89467105D01*
X147781605Y-89473000D01*
X147765110Y-89473000D01*
X147593753Y-89301643D01*
X147607895Y-89287500D01*
X147333646Y-89013251D01*
X147332947Y-89005213D01*
X147248317Y-88800897D01*
X147107780Y-88787385D01*
X147102030Y-88781635D01*
X147075000Y-88784234D01*
X147047970Y-88781635D01*
X147042220Y-88787385D01*
X146901683Y-88800897D01*
X146843027Y-88986578D01*
X146542105Y-89287500D01*
X146556248Y-89301643D01*
X146384890Y-89473000D01*
X146368395Y-89473000D01*
X146362500Y-89467105D01*
X146356605Y-89473000D01*
X146340110Y-89473000D01*
X146168753Y-89301643D01*
X146182895Y-89287500D01*
X145677030Y-88781635D01*
X145476683Y-88800897D01*
X145357897Y-89176925D01*
X145383638Y-89473000D01*
X143968291Y-89473000D01*
X143043261Y-88547970D01*
X145856635Y-88547970D01*
X145859234Y-88575000D01*
X145856635Y-88602030D01*
X145862385Y-88607780D01*
X145875897Y-88748317D01*
X146061578Y-88806973D01*
X146362500Y-89107895D01*
X146636749Y-88833646D01*
X146644787Y-88832947D01*
X146849103Y-88748317D01*
X146862615Y-88607780D01*
X146868365Y-88602030D01*
X146865766Y-88575000D01*
X146868365Y-88547970D01*
X147281635Y-88547970D01*
X147284234Y-88575000D01*
X147281635Y-88602030D01*
X147287385Y-88607780D01*
X147300897Y-88748317D01*
X147486578Y-88806973D01*
X147787500Y-89107895D01*
X148061749Y-88833646D01*
X148069787Y-88832947D01*
X148274103Y-88748317D01*
X148287615Y-88607780D01*
X148293365Y-88602030D01*
X148290766Y-88575000D01*
X148293365Y-88547970D01*
X148706635Y-88547970D01*
X148709234Y-88575000D01*
X148706635Y-88602030D01*
X148712385Y-88607780D01*
X148725897Y-88748317D01*
X148911578Y-88806973D01*
X149212500Y-89107895D01*
X149486749Y-88833646D01*
X149494787Y-88832947D01*
X149699103Y-88748317D01*
X149712615Y-88607780D01*
X149718365Y-88602030D01*
X149715766Y-88575000D01*
X149718365Y-88547970D01*
X150131635Y-88547970D01*
X150134234Y-88575000D01*
X150131635Y-88602030D01*
X150137385Y-88607780D01*
X150150897Y-88748317D01*
X150336578Y-88806973D01*
X150637500Y-89107895D01*
X150911749Y-88833646D01*
X150919787Y-88832947D01*
X151124103Y-88748317D01*
X151137615Y-88607780D01*
X151143365Y-88602030D01*
X151140766Y-88575000D01*
X151143365Y-88547970D01*
X151137615Y-88542220D01*
X151124103Y-88401683D01*
X150938422Y-88343027D01*
X150637500Y-88042105D01*
X150363251Y-88316354D01*
X150355213Y-88317053D01*
X150150897Y-88401683D01*
X150137385Y-88542220D01*
X150131635Y-88547970D01*
X149718365Y-88547970D01*
X149712615Y-88542220D01*
X149699103Y-88401683D01*
X149513422Y-88343027D01*
X149212500Y-88042105D01*
X148938251Y-88316354D01*
X148930213Y-88317053D01*
X148725897Y-88401683D01*
X148712385Y-88542220D01*
X148706635Y-88547970D01*
X148293365Y-88547970D01*
X148287615Y-88542220D01*
X148274103Y-88401683D01*
X148088422Y-88343027D01*
X147787500Y-88042105D01*
X147513251Y-88316354D01*
X147505213Y-88317053D01*
X147300897Y-88401683D01*
X147287385Y-88542220D01*
X147281635Y-88547970D01*
X146868365Y-88547970D01*
X146862615Y-88542220D01*
X146849103Y-88401683D01*
X146663422Y-88343027D01*
X146362500Y-88042105D01*
X146088251Y-88316354D01*
X146080213Y-88317053D01*
X145875897Y-88401683D01*
X145862385Y-88542220D01*
X145856635Y-88547970D01*
X143043261Y-88547970D01*
X143020861Y-88525571D01*
X143020861Y-87759904D01*
X143028840Y-87751925D01*
X145357897Y-87751925D01*
X145392053Y-88144787D01*
X145476683Y-88349103D01*
X145677030Y-88368365D01*
X146182895Y-87862500D01*
X146542105Y-87862500D01*
X146816354Y-88136749D01*
X146817053Y-88144787D01*
X146901683Y-88349103D01*
X147042220Y-88362615D01*
X147047970Y-88368365D01*
X147075000Y-88365766D01*
X147102030Y-88368365D01*
X147107780Y-88362615D01*
X147248317Y-88349103D01*
X147306973Y-88163422D01*
X147607895Y-87862500D01*
X147967105Y-87862500D01*
X148241354Y-88136749D01*
X148242053Y-88144787D01*
X148326683Y-88349103D01*
X148467220Y-88362615D01*
X148472970Y-88368365D01*
X148500000Y-88365766D01*
X148527030Y-88368365D01*
X148532780Y-88362615D01*
X148673317Y-88349103D01*
X148731973Y-88163422D01*
X149032895Y-87862500D01*
X149392105Y-87862500D01*
X149666354Y-88136749D01*
X149667053Y-88144787D01*
X149751683Y-88349103D01*
X149892220Y-88362615D01*
X149897970Y-88368365D01*
X149925000Y-88365766D01*
X149952030Y-88368365D01*
X149957780Y-88362615D01*
X150098317Y-88349103D01*
X150156973Y-88163422D01*
X150457895Y-87862500D01*
X150817105Y-87862500D01*
X151322970Y-88368365D01*
X151523317Y-88349103D01*
X151642103Y-87973075D01*
X151607947Y-87580213D01*
X151523317Y-87375897D01*
X151322970Y-87356635D01*
X150817105Y-87862500D01*
X150457895Y-87862500D01*
X150183646Y-87588251D01*
X150182947Y-87580213D01*
X150098317Y-87375897D01*
X149957780Y-87362385D01*
X149952030Y-87356635D01*
X149925000Y-87359234D01*
X149897970Y-87356635D01*
X149892220Y-87362385D01*
X149751683Y-87375897D01*
X149693027Y-87561578D01*
X149392105Y-87862500D01*
X149032895Y-87862500D01*
X148758646Y-87588251D01*
X148757947Y-87580213D01*
X148673317Y-87375897D01*
X148532780Y-87362385D01*
X148527030Y-87356635D01*
X148500000Y-87359234D01*
X148472970Y-87356635D01*
X148467220Y-87362385D01*
X148326683Y-87375897D01*
X148268027Y-87561578D01*
X147967105Y-87862500D01*
X147607895Y-87862500D01*
X147333646Y-87588251D01*
X147332947Y-87580213D01*
X147248317Y-87375897D01*
X147107780Y-87362385D01*
X147102030Y-87356635D01*
X147075000Y-87359234D01*
X147047970Y-87356635D01*
X147042220Y-87362385D01*
X146901683Y-87375897D01*
X146843027Y-87561578D01*
X146542105Y-87862500D01*
X146182895Y-87862500D01*
X145677030Y-87356635D01*
X145476683Y-87375897D01*
X145357897Y-87751925D01*
X143028840Y-87751925D01*
X143110182Y-87670583D01*
X143220861Y-87403379D01*
X143220861Y-87177030D01*
X145856635Y-87177030D01*
X146362500Y-87682895D01*
X146868365Y-87177030D01*
X147281635Y-87177030D01*
X147787500Y-87682895D01*
X148293365Y-87177030D01*
X148706635Y-87177030D01*
X149212500Y-87682895D01*
X149718365Y-87177030D01*
X150131635Y-87177030D01*
X150637500Y-87682895D01*
X151143365Y-87177030D01*
X151124103Y-86976683D01*
X150748075Y-86857897D01*
X150355213Y-86892053D01*
X150150897Y-86976683D01*
X150131635Y-87177030D01*
X149718365Y-87177030D01*
X149699103Y-86976683D01*
X149323075Y-86857897D01*
X148930213Y-86892053D01*
X148725897Y-86976683D01*
X148706635Y-87177030D01*
X148293365Y-87177030D01*
X148274103Y-86976683D01*
X147898075Y-86857897D01*
X147505213Y-86892053D01*
X147300897Y-86976683D01*
X147281635Y-87177030D01*
X146868365Y-87177030D01*
X146849103Y-86976683D01*
X146473075Y-86857897D01*
X146080213Y-86892053D01*
X145875897Y-86976683D01*
X145856635Y-87177030D01*
X143220861Y-87177030D01*
X143220861Y-87114161D01*
X143110182Y-86846957D01*
X142905674Y-86642449D01*
X142638470Y-86531770D01*
X142477000Y-86531770D01*
X142477000Y-86355391D01*
X142377000Y-86113969D01*
X142377000Y-85859711D01*
X143059712Y-85177000D01*
X145138254Y-85177000D01*
X145200000Y-85189282D01*
X145261746Y-85177000D01*
X145261750Y-85177000D01*
X145444643Y-85140620D01*
X145652041Y-85002041D01*
X145687020Y-84949691D01*
X147009712Y-83627000D01*
X147113969Y-83627000D01*
X147355391Y-83727000D01*
X147644609Y-83727000D01*
X147886031Y-83627000D01*
X152338254Y-83627000D01*
X152400000Y-83639282D01*
X152461746Y-83627000D01*
X152461750Y-83627000D01*
X152644643Y-83590620D01*
X152852041Y-83452041D01*
X152887020Y-83399691D01*
X153859712Y-82427000D01*
X161790289Y-82427000D01*
X162512981Y-83149693D01*
X162547959Y-83202041D01*
X162755357Y-83340620D01*
X162938250Y-83377000D01*
X162938254Y-83377000D01*
X163000000Y-83389282D01*
X163061746Y-83377000D01*
X167113969Y-83377000D01*
X167355391Y-83477000D01*
X167644609Y-83477000D01*
X167886031Y-83377000D01*
X169863969Y-83377000D01*
X170105391Y-83477000D01*
X170394609Y-83477000D01*
X170661813Y-83366321D01*
X170866321Y-83161813D01*
X170977000Y-82894609D01*
X170977000Y-82605391D01*
X170866321Y-82338187D01*
X170661813Y-82133679D01*
X170394609Y-82023000D01*
X170105391Y-82023000D01*
X169863969Y-82123000D01*
X167886031Y-82123000D01*
X167644609Y-82023000D01*
X167355391Y-82023000D01*
X167113969Y-82123000D01*
X163259712Y-82123000D01*
X162913711Y-81777000D01*
X163248866Y-81777000D01*
X163338187Y-81866321D01*
X163605391Y-81977000D01*
X163894609Y-81977000D01*
X164161813Y-81866321D01*
X164366321Y-81661813D01*
X164375000Y-81640860D01*
X164383679Y-81661813D01*
X164588187Y-81866321D01*
X164855391Y-81977000D01*
X165144609Y-81977000D01*
X165411813Y-81866321D01*
X165616321Y-81661813D01*
X165727000Y-81394609D01*
X165727000Y-81105391D01*
X165616321Y-80838187D01*
X165411813Y-80633679D01*
X165144609Y-80523000D01*
X165018291Y-80523000D01*
X164659345Y-80164055D01*
X164629945Y-80120055D01*
X164455625Y-80003577D01*
X164301903Y-79973000D01*
X164301898Y-79973000D01*
X164250000Y-79962677D01*
X164198102Y-79973000D01*
X162944530Y-79973000D01*
X162977000Y-79894609D01*
X162977000Y-79605391D01*
X162866321Y-79338187D01*
X162661813Y-79133679D01*
X162394609Y-79023000D01*
X162173819Y-79023000D01*
X162227000Y-78894609D01*
X162227000Y-78605391D01*
X162116321Y-78338187D01*
X161911813Y-78133679D01*
X161644609Y-78023000D01*
X161355391Y-78023000D01*
X161088187Y-78133679D01*
X160998866Y-78223000D01*
X152501134Y-78223000D01*
X152411813Y-78133679D01*
X152144609Y-78023000D01*
X151855391Y-78023000D01*
X151588187Y-78133679D01*
X151383679Y-78338187D01*
X151273000Y-78605391D01*
X151273000Y-78894609D01*
X151383679Y-79161813D01*
X151471866Y-79250000D01*
X151383679Y-79338187D01*
X151273000Y-79605391D01*
X151273000Y-79894609D01*
X151383679Y-80161813D01*
X151588187Y-80366321D01*
X151855391Y-80477000D01*
X152144609Y-80477000D01*
X152411813Y-80366321D01*
X152501134Y-80277000D01*
X152555470Y-80277000D01*
X152523000Y-80355391D01*
X152523000Y-80576181D01*
X152394609Y-80523000D01*
X152105391Y-80523000D01*
X151838187Y-80633679D01*
X151633679Y-80838187D01*
X151523000Y-81105391D01*
X151523000Y-81394609D01*
X151633679Y-81661813D01*
X151838187Y-81866321D01*
X152105391Y-81977000D01*
X152394609Y-81977000D01*
X152523000Y-81923819D01*
X152523000Y-81990289D01*
X152140289Y-82373000D01*
X147886031Y-82373000D01*
X147644609Y-82273000D01*
X147355391Y-82273000D01*
X147113969Y-82373000D01*
X146811745Y-82373000D01*
X146749999Y-82360718D01*
X146688253Y-82373000D01*
X146688250Y-82373000D01*
X146505357Y-82409380D01*
X146297959Y-82547959D01*
X146262981Y-82600307D01*
X144940289Y-83923000D01*
X142861744Y-83923000D01*
X142799999Y-83910718D01*
X142738254Y-83923000D01*
X142738250Y-83923000D01*
X142555357Y-83959380D01*
X142347959Y-84097959D01*
X142312981Y-84150307D01*
X141350307Y-85112982D01*
X141297960Y-85147959D01*
X141262982Y-85200307D01*
X141262981Y-85200308D01*
X141159380Y-85355358D01*
X141110718Y-85600000D01*
X141123001Y-85661751D01*
X141123000Y-86113967D01*
X141023000Y-86355391D01*
X141023000Y-86644609D01*
X141123001Y-86886034D01*
X141123000Y-89613968D01*
X141023000Y-89855391D01*
X141023000Y-90144609D01*
X141123000Y-90386032D01*
X141123001Y-92613966D01*
X141023000Y-92855391D01*
X141023000Y-93144609D01*
X141133679Y-93411813D01*
X141194866Y-93473000D01*
X140727000Y-93473000D01*
X140727000Y-93295391D01*
X140627000Y-93053969D01*
X140627000Y-91136031D01*
X140727000Y-90894609D01*
X140727000Y-90605391D01*
X140616321Y-90338187D01*
X140411813Y-90133679D01*
X140144609Y-90023000D01*
X139855391Y-90023000D01*
X139588187Y-90133679D01*
X139383679Y-90338187D01*
X139273000Y-90605391D01*
X139273000Y-90894609D01*
X139373000Y-91136032D01*
X139373001Y-93053966D01*
X139273000Y-93295391D01*
X139273000Y-93473000D01*
X132051899Y-93473000D01*
X132000000Y-93462677D01*
X131948101Y-93473000D01*
X131948097Y-93473000D01*
X131803560Y-93501750D01*
X131794375Y-93503577D01*
X131664055Y-93590654D01*
X131664052Y-93590657D01*
X131620055Y-93620055D01*
X131590656Y-93664053D01*
X130664055Y-94590655D01*
X130620055Y-94620055D01*
X130590655Y-94664055D01*
X130590654Y-94664056D01*
X130562879Y-94705624D01*
X130503577Y-94794376D01*
X130473000Y-94948098D01*
X130473000Y-94948102D01*
X130462677Y-95000000D01*
X130473000Y-95051898D01*
X130473001Y-95781709D01*
X130211700Y-96043010D01*
X129412476Y-96043010D01*
X129348155Y-95978689D01*
X129080951Y-95868010D01*
X128791733Y-95868010D01*
X128524529Y-95978689D01*
X128320021Y-96183197D01*
X128209342Y-96450401D01*
X115527000Y-96450401D01*
X115527000Y-93605391D01*
X125273000Y-93605391D01*
X125273000Y-93894609D01*
X125383679Y-94161813D01*
X125588187Y-94366321D01*
X125855391Y-94477000D01*
X126144609Y-94477000D01*
X126411813Y-94366321D01*
X126476134Y-94302000D01*
X127858001Y-94302000D01*
X128104335Y-94670665D01*
X128526740Y-94952907D01*
X128899231Y-95027000D01*
X129400769Y-95027000D01*
X129773260Y-94952907D01*
X130195665Y-94670665D01*
X130477907Y-94248260D01*
X130577017Y-93750000D01*
X130477907Y-93251740D01*
X130195665Y-92829335D01*
X129773260Y-92547093D01*
X129536507Y-92500000D01*
X129773260Y-92452907D01*
X130195665Y-92170665D01*
X130477907Y-91748260D01*
X130577017Y-91250000D01*
X130477907Y-90751740D01*
X130195665Y-90329335D01*
X129773260Y-90047093D01*
X129536507Y-90000000D01*
X129773260Y-89952907D01*
X130195665Y-89670665D01*
X130477907Y-89248260D01*
X130577017Y-88750000D01*
X130477907Y-88251740D01*
X130195665Y-87829335D01*
X130054483Y-87735000D01*
X130251310Y-87735000D01*
X130484699Y-87638327D01*
X130663327Y-87459698D01*
X130760000Y-87226309D01*
X130760000Y-86535750D01*
X130601250Y-86377000D01*
X129277000Y-86377000D01*
X129277000Y-86397000D01*
X129023000Y-86397000D01*
X129023000Y-86377000D01*
X127698750Y-86377000D01*
X127540000Y-86535750D01*
X127540000Y-87226309D01*
X127636673Y-87459698D01*
X127815301Y-87638327D01*
X128048690Y-87735000D01*
X128245517Y-87735000D01*
X128104335Y-87829335D01*
X127822093Y-88251740D01*
X127722983Y-88750000D01*
X127822093Y-89248260D01*
X128104335Y-89670665D01*
X128526740Y-89952907D01*
X128763493Y-90000000D01*
X128526740Y-90047093D01*
X128104335Y-90329335D01*
X127822093Y-90751740D01*
X127722983Y-91250000D01*
X127822093Y-91748260D01*
X128104335Y-92170665D01*
X128526740Y-92452907D01*
X128763493Y-92500000D01*
X128526740Y-92547093D01*
X128104335Y-92829335D01*
X127858001Y-93198000D01*
X126476134Y-93198000D01*
X126411813Y-93133679D01*
X126144609Y-93023000D01*
X125855391Y-93023000D01*
X125588187Y-93133679D01*
X125383679Y-93338187D01*
X125273000Y-93605391D01*
X115527000Y-93605391D01*
X115527000Y-85273691D01*
X127540000Y-85273691D01*
X127540000Y-85964250D01*
X127698750Y-86123000D01*
X129023000Y-86123000D01*
X129023000Y-84923750D01*
X129277000Y-84923750D01*
X129277000Y-86123000D01*
X130601250Y-86123000D01*
X130760000Y-85964250D01*
X130760000Y-85273691D01*
X130663327Y-85040302D01*
X130484699Y-84861673D01*
X130251310Y-84765000D01*
X129435750Y-84765000D01*
X129277000Y-84923750D01*
X129023000Y-84923750D01*
X128864250Y-84765000D01*
X128048690Y-84765000D01*
X127815301Y-84861673D01*
X127636673Y-85040302D01*
X127540000Y-85273691D01*
X115527000Y-85273691D01*
X115527000Y-83152606D01*
X116052606Y-82627000D01*
X121500000Y-82627000D01*
X121548601Y-82617333D01*
X121589803Y-82589803D01*
X122589803Y-81589803D01*
X122617333Y-81548601D01*
X122627000Y-81500000D01*
X122627000Y-76052606D01*
X123152606Y-75527000D01*
X131079326Y-75527000D01*
X131047959Y-75547959D01*
X131047959Y-75547959D01*
G37*
X131047959Y-75547959D02*
X131012979Y-75600310D01*
X130600310Y-76012979D01*
X130547959Y-76047959D01*
X130409380Y-76255358D01*
X130373000Y-76438251D01*
X130373000Y-76438254D01*
X130360718Y-76500000D01*
X130373000Y-76561747D01*
X130373001Y-77113967D01*
X130273000Y-77355391D01*
X130273000Y-77644609D01*
X130383679Y-77911813D01*
X130588187Y-78116321D01*
X130855391Y-78227000D01*
X131144609Y-78227000D01*
X131411813Y-78116321D01*
X131616321Y-77911813D01*
X131727000Y-77644609D01*
X131727000Y-77355391D01*
X133273000Y-77355391D01*
X133273000Y-77644609D01*
X133383679Y-77911813D01*
X133473001Y-78001135D01*
X133473000Y-81998866D01*
X133383679Y-82088187D01*
X133273000Y-82355391D01*
X133273000Y-82644609D01*
X133383679Y-82911813D01*
X133588187Y-83116321D01*
X133855391Y-83227000D01*
X134144609Y-83227000D01*
X134380002Y-83129498D01*
X134615394Y-83227000D01*
X134904612Y-83227000D01*
X135171816Y-83116321D01*
X135376324Y-82911813D01*
X135487003Y-82644609D01*
X135487003Y-82355391D01*
X135376324Y-82088187D01*
X135287003Y-81998866D01*
X135287003Y-79855391D01*
X144523000Y-79855391D01*
X144523000Y-80144609D01*
X144633679Y-80411813D01*
X144723001Y-80501135D01*
X144723000Y-81498866D01*
X144633679Y-81588187D01*
X144523000Y-81855391D01*
X144523000Y-82144609D01*
X144633679Y-82411813D01*
X144838187Y-82616321D01*
X145105391Y-82727000D01*
X145394609Y-82727000D01*
X145661813Y-82616321D01*
X145866321Y-82411813D01*
X145977000Y-82144609D01*
X145977000Y-81855391D01*
X145866321Y-81588187D01*
X145777000Y-81498866D01*
X145777000Y-80501134D01*
X145866321Y-80411813D01*
X145977000Y-80144609D01*
X145977000Y-79855391D01*
X145866321Y-79588187D01*
X145661813Y-79383679D01*
X145394609Y-79273000D01*
X145105391Y-79273000D01*
X144838187Y-79383679D01*
X144633679Y-79588187D01*
X144523000Y-79855391D01*
X135287003Y-79855391D01*
X135287003Y-79491131D01*
X135366321Y-79411813D01*
X135477000Y-79144609D01*
X135477000Y-78855391D01*
X135366321Y-78588187D01*
X135161813Y-78383679D01*
X134894609Y-78273000D01*
X134605391Y-78273000D01*
X134527000Y-78305470D01*
X134527000Y-78001134D01*
X134616321Y-77911813D01*
X134727000Y-77644609D01*
X134727000Y-77355391D01*
X134616321Y-77088187D01*
X134411813Y-76883679D01*
X134144609Y-76773000D01*
X133855391Y-76773000D01*
X133588187Y-76883679D01*
X133383679Y-77088187D01*
X133273000Y-77355391D01*
X131727000Y-77355391D01*
X131627000Y-77113969D01*
X131627000Y-76759711D01*
X131759711Y-76627000D01*
X136613969Y-76627000D01*
X136855391Y-76727000D01*
X137144609Y-76727000D01*
X137386031Y-76627000D01*
X144740289Y-76627000D01*
X144873001Y-76759712D01*
X144873000Y-77613968D01*
X144773000Y-77855391D01*
X144773000Y-78144609D01*
X144883679Y-78411813D01*
X145088187Y-78616321D01*
X145355391Y-78727000D01*
X145644609Y-78727000D01*
X145911813Y-78616321D01*
X146116321Y-78411813D01*
X146227000Y-78144609D01*
X146227000Y-77855391D01*
X146127000Y-77613969D01*
X146127000Y-76561746D01*
X146139282Y-76500000D01*
X146127000Y-76438254D01*
X146127000Y-76438250D01*
X146090620Y-76255357D01*
X145952041Y-76047959D01*
X145899690Y-76012979D01*
X145487021Y-75600310D01*
X145452041Y-75547959D01*
X145420674Y-75527000D01*
X176847394Y-75527000D01*
X177373000Y-76052606D01*
X177373000Y-81500000D01*
X177382667Y-81548601D01*
X177410197Y-81589803D01*
X178410197Y-82589803D01*
X178451399Y-82617333D01*
X178500000Y-82627000D01*
X183947394Y-82627000D01*
X184473000Y-83152606D01*
X184473001Y-96847393D01*
X183947394Y-97373000D01*
X178500000Y-97373000D01*
X178451399Y-97382667D01*
X178410197Y-97410197D01*
X177410197Y-98410197D01*
X177382667Y-98451399D01*
X177373000Y-98500000D01*
X177373000Y-103947394D01*
X176822394Y-104498000D01*
X172502000Y-104498000D01*
X172502000Y-104299439D01*
X172511834Y-104250000D01*
X172472873Y-104054130D01*
X172361921Y-103888079D01*
X172282483Y-103835000D01*
X172576309Y-103835000D01*
X172809698Y-103738327D01*
X172988327Y-103559699D01*
X173085000Y-103326310D01*
X173085000Y-102535750D01*
X172926250Y-102377000D01*
X171527000Y-102377000D01*
X171527000Y-102397000D01*
X171273000Y-102397000D01*
X171273000Y-102377000D01*
X169873750Y-102377000D01*
X169715000Y-102535750D01*
X169715000Y-103326310D01*
X169811673Y-103559699D01*
X169990302Y-103738327D01*
X170013655Y-103748000D01*
X165486345Y-103748000D01*
X165509698Y-103738327D01*
X165688327Y-103559699D01*
X165785000Y-103326310D01*
X165785000Y-102535750D01*
X165626250Y-102377000D01*
X164227000Y-102377000D01*
X164227000Y-102397000D01*
X163973000Y-102397000D01*
X163973000Y-102377000D01*
X162573750Y-102377000D01*
X162415000Y-102535750D01*
X162415000Y-103326310D01*
X162511673Y-103559699D01*
X162690302Y-103738327D01*
X162923691Y-103835000D01*
X163217517Y-103835000D01*
X163138079Y-103888079D01*
X163027127Y-104054130D01*
X162988166Y-104250000D01*
X162998000Y-104299439D01*
X162998000Y-104473000D01*
X123152606Y-104473000D01*
X122627000Y-103947394D01*
X122627000Y-101355391D01*
X127523000Y-101355391D01*
X127523000Y-101644609D01*
X127633679Y-101911813D01*
X127723001Y-102001135D01*
X127723000Y-102698102D01*
X127712677Y-102750000D01*
X127723000Y-102801898D01*
X127723000Y-102801902D01*
X127753577Y-102955624D01*
X127765966Y-102974165D01*
X127827734Y-103066607D01*
X127870055Y-103129945D01*
X127914055Y-103159345D01*
X128340656Y-103585947D01*
X128370055Y-103629945D01*
X128414052Y-103659343D01*
X128414055Y-103659346D01*
X128544374Y-103746423D01*
X128576387Y-103752791D01*
X128698097Y-103777000D01*
X128698101Y-103777000D01*
X128750000Y-103787323D01*
X128801899Y-103777000D01*
X129748866Y-103777000D01*
X129838187Y-103866321D01*
X130105391Y-103977000D01*
X130394609Y-103977000D01*
X130661813Y-103866321D01*
X130866321Y-103661813D01*
X130977000Y-103394609D01*
X130977000Y-103105391D01*
X130866321Y-102838187D01*
X130661813Y-102633679D01*
X130394609Y-102523000D01*
X130105391Y-102523000D01*
X129838187Y-102633679D01*
X129748866Y-102723000D01*
X128968291Y-102723000D01*
X128777000Y-102531710D01*
X128777000Y-102001134D01*
X128866321Y-101911813D01*
X128977000Y-101644609D01*
X128977000Y-101355391D01*
X128866321Y-101088187D01*
X128661813Y-100883679D01*
X128394609Y-100773000D01*
X128105391Y-100773000D01*
X127838187Y-100883679D01*
X127633679Y-101088187D01*
X127523000Y-101355391D01*
X122627000Y-101355391D01*
X122627000Y-98500000D01*
X122617333Y-98451399D01*
X122589803Y-98410197D01*
X121589803Y-97410197D01*
X121548601Y-97382667D01*
X121500000Y-97373000D01*
X116052606Y-97373000D01*
X115527000Y-96847394D01*
X115527000Y-96450401D01*
X128209342Y-96450401D01*
X128209342Y-96739619D01*
X128320021Y-97006823D01*
X128524529Y-97211331D01*
X128791733Y-97322010D01*
X129080951Y-97322010D01*
X129348155Y-97211331D01*
X129412476Y-97147010D01*
X130459355Y-97147010D01*
X130620370Y-97114982D01*
X130802960Y-96992980D01*
X130904950Y-96840340D01*
X131123000Y-96622290D01*
X131123001Y-101863966D01*
X131023000Y-102105391D01*
X131023000Y-102394609D01*
X131133679Y-102661813D01*
X131338187Y-102866321D01*
X131605391Y-102977000D01*
X131894609Y-102977000D01*
X132161813Y-102866321D01*
X132366321Y-102661813D01*
X132477000Y-102394609D01*
X132477000Y-102105391D01*
X132377000Y-101863969D01*
X132377000Y-95759711D01*
X132669713Y-95466999D01*
X135273000Y-95466999D01*
X135273000Y-95644609D01*
X135373000Y-95886032D01*
X135373001Y-98113966D01*
X135273000Y-98355391D01*
X135273000Y-98644609D01*
X135383679Y-98911813D01*
X135588187Y-99116321D01*
X135855391Y-99227000D01*
X136144609Y-99227000D01*
X136373001Y-99132397D01*
X136373001Y-99188245D01*
X136373000Y-99188250D01*
X136373000Y-99740289D01*
X136240289Y-99873000D01*
X135136031Y-99873000D01*
X134894609Y-99773000D01*
X134605391Y-99773000D01*
X134338187Y-99883679D01*
X134133679Y-100088187D01*
X134023000Y-100355391D01*
X134023000Y-100644609D01*
X134038891Y-100682975D01*
X133883679Y-100838187D01*
X133773000Y-101105391D01*
X133773000Y-101394609D01*
X133882316Y-101658521D01*
X133790736Y-101879615D01*
X133790736Y-102168833D01*
X133901415Y-102436037D01*
X134105923Y-102640545D01*
X134373127Y-102751224D01*
X134662345Y-102751224D01*
X134929549Y-102640545D01*
X135018870Y-102551224D01*
X142693528Y-102551224D01*
X142745426Y-102561547D01*
X142797324Y-102551224D01*
X142797329Y-102551224D01*
X142951051Y-102520647D01*
X143125371Y-102404169D01*
X143154771Y-102360169D01*
X143198057Y-102316883D01*
X143324376Y-102316883D01*
X143591580Y-102206204D01*
X143673000Y-102124784D01*
X143673000Y-102263957D01*
X143875024Y-102751685D01*
X144248315Y-103124976D01*
X144736043Y-103327000D01*
X145263957Y-103327000D01*
X145751685Y-103124976D01*
X146124976Y-102751685D01*
X146250000Y-102449851D01*
X146375024Y-102751685D01*
X146748315Y-103124976D01*
X147236043Y-103327000D01*
X147763957Y-103327000D01*
X148251685Y-103124976D01*
X148624976Y-102751685D01*
X148750000Y-102449851D01*
X148875024Y-102751685D01*
X149248315Y-103124976D01*
X149736043Y-103327000D01*
X150263957Y-103327000D01*
X150751685Y-103124976D01*
X150796502Y-103080159D01*
X151599446Y-103080159D01*
X151685852Y-103336643D01*
X152259336Y-103546458D01*
X152869460Y-103520839D01*
X153314148Y-103336643D01*
X153400554Y-103080159D01*
X152500000Y-102179605D01*
X151599446Y-103080159D01*
X150796502Y-103080159D01*
X151124976Y-102751685D01*
X151131230Y-102736587D01*
X151163357Y-102814148D01*
X151419841Y-102900554D01*
X152320395Y-102000000D01*
X151419841Y-101099446D01*
X151163357Y-101185852D01*
X151133221Y-101268221D01*
X151124976Y-101248315D01*
X150796502Y-100919841D01*
X151599446Y-100919841D01*
X152500000Y-101820395D01*
X153400554Y-100919841D01*
X153314148Y-100663357D01*
X152740664Y-100453542D01*
X152130540Y-100479161D01*
X151685852Y-100663357D01*
X151599446Y-100919841D01*
X150796502Y-100919841D01*
X150751685Y-100875024D01*
X150505205Y-100772929D01*
X150616321Y-100661813D01*
X150727000Y-100394609D01*
X150727000Y-100105391D01*
X150616321Y-99838187D01*
X150411813Y-99633679D01*
X150187000Y-99540559D01*
X150187000Y-99355391D01*
X150076321Y-99088187D01*
X149871813Y-98883679D01*
X149604609Y-98773000D01*
X149315391Y-98773000D01*
X149048187Y-98883679D01*
X148958866Y-98973000D01*
X146279105Y-98973000D01*
X146227207Y-98962677D01*
X146175309Y-98973000D01*
X146175305Y-98973000D01*
X146021583Y-99003577D01*
X146018918Y-99005358D01*
X145891263Y-99090654D01*
X145891260Y-99090657D01*
X145847263Y-99120055D01*
X145817864Y-99164053D01*
X144664053Y-100317865D01*
X144620056Y-100347263D01*
X144590658Y-100391260D01*
X144590654Y-100391264D01*
X144517999Y-100500000D01*
X144503578Y-100521583D01*
X144473460Y-100673000D01*
X144462677Y-100727208D01*
X144473001Y-100779110D01*
X144473001Y-100781956D01*
X144248315Y-100875024D01*
X143875024Y-101248315D01*
X143850104Y-101308477D01*
X143796088Y-101178070D01*
X143591580Y-100973562D01*
X143324376Y-100862883D01*
X143126550Y-100862883D01*
X143116321Y-100838187D01*
X142911813Y-100633679D01*
X142644609Y-100523000D01*
X142355391Y-100523000D01*
X142088187Y-100633679D01*
X141998866Y-100723000D01*
X137163711Y-100723000D01*
X137399691Y-100487020D01*
X137452041Y-100452041D01*
X137590620Y-100244643D01*
X137627000Y-100061750D01*
X137627000Y-100061746D01*
X137639282Y-100000000D01*
X137627000Y-99938254D01*
X137627000Y-97509711D01*
X137759711Y-97377000D01*
X138115414Y-97377000D01*
X138090655Y-97414055D01*
X138090654Y-97414056D01*
X138062879Y-97455625D01*
X138003577Y-97544376D01*
X137973000Y-97698098D01*
X137973000Y-97698102D01*
X137962677Y-97750000D01*
X137973000Y-97801898D01*
X137973000Y-97998866D01*
X137883679Y-98088187D01*
X137773000Y-98355391D01*
X137773000Y-98644609D01*
X137883679Y-98911813D01*
X138088187Y-99116321D01*
X138355391Y-99227000D01*
X138644609Y-99227000D01*
X138911813Y-99116321D01*
X139116321Y-98911813D01*
X139125000Y-98890860D01*
X139133679Y-98911813D01*
X139338187Y-99116321D01*
X139605391Y-99227000D01*
X139894609Y-99227000D01*
X140161813Y-99116321D01*
X140366321Y-98911813D01*
X140477000Y-98644609D01*
X140477000Y-98355391D01*
X140469382Y-98337000D01*
X143786269Y-98337000D01*
X143875590Y-98426321D01*
X144142794Y-98537000D01*
X144432012Y-98537000D01*
X144699216Y-98426321D01*
X144903724Y-98221813D01*
X145014403Y-97954609D01*
X145014403Y-97665391D01*
X144903724Y-97398187D01*
X144699216Y-97193679D01*
X144475122Y-97100857D01*
X144366321Y-96838187D01*
X144161813Y-96633679D01*
X143894609Y-96523000D01*
X143605391Y-96523000D01*
X143338187Y-96633679D01*
X143248866Y-96723000D01*
X141170674Y-96723000D01*
X141202041Y-96702041D01*
X141340620Y-96494643D01*
X141377000Y-96311750D01*
X141377000Y-96311746D01*
X141389282Y-96250000D01*
X141377000Y-96188254D01*
X141377000Y-95561745D01*
X141389282Y-95499999D01*
X141377000Y-95438251D01*
X141377000Y-95438250D01*
X141340620Y-95255357D01*
X141202041Y-95047959D01*
X141149694Y-95012982D01*
X140727000Y-94590289D01*
X140727000Y-94527000D01*
X141023000Y-94527000D01*
X141023000Y-94704609D01*
X141133679Y-94971813D01*
X141338187Y-95176321D01*
X141605391Y-95287000D01*
X141894609Y-95287000D01*
X142136031Y-95187000D01*
X144050289Y-95187000D01*
X144123000Y-95259712D01*
X144123000Y-95755056D01*
X144110718Y-95816802D01*
X144123000Y-95878548D01*
X144123000Y-95878552D01*
X144138331Y-95955625D01*
X144159380Y-96061444D01*
X144255720Y-96205626D01*
X144297960Y-96268843D01*
X144350307Y-96303820D01*
X144696178Y-96649692D01*
X144731157Y-96702041D01*
X144938555Y-96840620D01*
X145121448Y-96877000D01*
X145121452Y-96877000D01*
X145183197Y-96889282D01*
X145244942Y-96877000D01*
X151240289Y-96877000D01*
X151533679Y-97170391D01*
X151633679Y-97411813D01*
X151838187Y-97616321D01*
X152105391Y-97727000D01*
X152394609Y-97727000D01*
X152523000Y-97673819D01*
X152523000Y-97894609D01*
X152633679Y-98161813D01*
X152838187Y-98366321D01*
X153023000Y-98442873D01*
X153023000Y-98644609D01*
X153133679Y-98911813D01*
X153338187Y-99116321D01*
X153605391Y-99227000D01*
X153773000Y-99227000D01*
X153773000Y-99394609D01*
X153883679Y-99661813D01*
X154088187Y-99866321D01*
X154355391Y-99977000D01*
X154523000Y-99977000D01*
X154523000Y-100144609D01*
X154633679Y-100411813D01*
X154838187Y-100616321D01*
X154954828Y-100664635D01*
X154100000Y-100664635D01*
X153933393Y-100697775D01*
X153792150Y-100792150D01*
X153697775Y-100933393D01*
X153664635Y-101100000D01*
X153664635Y-101127905D01*
X153580159Y-101099446D01*
X152679605Y-102000000D01*
X153580159Y-102900554D01*
X153664635Y-102872095D01*
X153664635Y-102900000D01*
X153697775Y-103066607D01*
X153792150Y-103207850D01*
X153933393Y-103302225D01*
X154100000Y-103335365D01*
X155900000Y-103335365D01*
X156066607Y-103302225D01*
X156207850Y-103207850D01*
X156302225Y-103066607D01*
X156335365Y-102900000D01*
X156335365Y-101173690D01*
X162415000Y-101173690D01*
X162415000Y-101964250D01*
X162573750Y-102123000D01*
X163973000Y-102123000D01*
X163973000Y-100823750D01*
X164227000Y-100823750D01*
X164227000Y-102123000D01*
X165626250Y-102123000D01*
X165785000Y-101964250D01*
X165785000Y-101173690D01*
X169715000Y-101173690D01*
X169715000Y-101964250D01*
X169873750Y-102123000D01*
X171273000Y-102123000D01*
X171273000Y-100823750D01*
X171527000Y-100823750D01*
X171527000Y-102123000D01*
X172926250Y-102123000D01*
X173085000Y-101964250D01*
X173085000Y-101173690D01*
X172988327Y-100940301D01*
X172809698Y-100761673D01*
X172576309Y-100665000D01*
X171685750Y-100665000D01*
X171527000Y-100823750D01*
X171273000Y-100823750D01*
X171114250Y-100665000D01*
X170223691Y-100665000D01*
X169990302Y-100761673D01*
X169811673Y-100940301D01*
X169715000Y-101173690D01*
X165785000Y-101173690D01*
X165688327Y-100940301D01*
X165509698Y-100761673D01*
X165276309Y-100665000D01*
X164385750Y-100665000D01*
X164227000Y-100823750D01*
X163973000Y-100823750D01*
X163814250Y-100665000D01*
X162923691Y-100665000D01*
X162690302Y-100761673D01*
X162511673Y-100940301D01*
X162415000Y-101173690D01*
X156335365Y-101173690D01*
X156335365Y-101100000D01*
X156302225Y-100933393D01*
X156207850Y-100792150D01*
X156066607Y-100697775D01*
X155900000Y-100664635D01*
X155545172Y-100664635D01*
X155661813Y-100616321D01*
X155751134Y-100527000D01*
X157198102Y-100527000D01*
X157250000Y-100537323D01*
X157301898Y-100527000D01*
X157301903Y-100527000D01*
X157455625Y-100496423D01*
X157629945Y-100379945D01*
X157659345Y-100335945D01*
X158437389Y-99557901D01*
X164184963Y-99557901D01*
X164351303Y-99978349D01*
X164665880Y-100303136D01*
X165019190Y-100468964D01*
X165198000Y-100343163D01*
X165198000Y-99377000D01*
X165452000Y-99377000D01*
X165452000Y-100343163D01*
X165630810Y-100468964D01*
X165984120Y-100303136D01*
X166298697Y-99978349D01*
X166465037Y-99557901D01*
X169034963Y-99557901D01*
X169201303Y-99978349D01*
X169515880Y-100303136D01*
X169869190Y-100468964D01*
X170048000Y-100343163D01*
X170048000Y-99377000D01*
X170302000Y-99377000D01*
X170302000Y-100343163D01*
X170480810Y-100468964D01*
X170834120Y-100303136D01*
X171148697Y-99978349D01*
X171315037Y-99557901D01*
X171174774Y-99377000D01*
X170302000Y-99377000D01*
X170048000Y-99377000D01*
X169175226Y-99377000D01*
X169034963Y-99557901D01*
X166465037Y-99557901D01*
X166324774Y-99377000D01*
X165452000Y-99377000D01*
X165198000Y-99377000D01*
X164325226Y-99377000D01*
X164184963Y-99557901D01*
X158437389Y-99557901D01*
X159053191Y-98942099D01*
X164184963Y-98942099D01*
X164325226Y-99123000D01*
X165198000Y-99123000D01*
X165198000Y-99103000D01*
X165452000Y-99103000D01*
X165452000Y-99123000D01*
X166324774Y-99123000D01*
X166465037Y-98942099D01*
X169034963Y-98942099D01*
X169175226Y-99123000D01*
X170048000Y-99123000D01*
X170048000Y-98156837D01*
X170302000Y-98156837D01*
X170302000Y-99123000D01*
X171174774Y-99123000D01*
X171315037Y-98942099D01*
X171148697Y-98521651D01*
X170834120Y-98196864D01*
X170480810Y-98031036D01*
X170302000Y-98156837D01*
X170048000Y-98156837D01*
X169869190Y-98031036D01*
X169515880Y-98196864D01*
X169201303Y-98521651D01*
X169034963Y-98942099D01*
X166465037Y-98942099D01*
X166298697Y-98521651D01*
X166223714Y-98444234D01*
X166411813Y-98366321D01*
X166476134Y-98302000D01*
X167273866Y-98302000D01*
X167338187Y-98366321D01*
X167605391Y-98477000D01*
X167894609Y-98477000D01*
X168161813Y-98366321D01*
X168366321Y-98161813D01*
X168477000Y-97894609D01*
X168477000Y-97605391D01*
X168366321Y-97338187D01*
X168161813Y-97133679D01*
X167894609Y-97023000D01*
X167605391Y-97023000D01*
X167338187Y-97133679D01*
X167273866Y-97198000D01*
X166476134Y-97198000D01*
X166411813Y-97133679D01*
X166144609Y-97023000D01*
X165855391Y-97023000D01*
X165588187Y-97133679D01*
X165383679Y-97338187D01*
X165273000Y-97605391D01*
X165273000Y-97894609D01*
X165312512Y-97990000D01*
X165197998Y-97990000D01*
X165197998Y-98156836D01*
X165019190Y-98031036D01*
X164665880Y-98196864D01*
X164351303Y-98521651D01*
X164184963Y-98942099D01*
X159053191Y-98942099D01*
X159085945Y-98909345D01*
X159129945Y-98879945D01*
X159246423Y-98705625D01*
X159277000Y-98551903D01*
X159277000Y-98551899D01*
X159287323Y-98500001D01*
X159277000Y-98448103D01*
X159277000Y-97468290D01*
X159468291Y-97277000D01*
X163198102Y-97277000D01*
X163250000Y-97287323D01*
X163301898Y-97277000D01*
X163301903Y-97277000D01*
X163455625Y-97246423D01*
X163629945Y-97129945D01*
X163659345Y-97085945D01*
X166268291Y-94477000D01*
X166394609Y-94477000D01*
X166661813Y-94366321D01*
X166866321Y-94161813D01*
X166977000Y-93894609D01*
X166977000Y-93605391D01*
X166944530Y-93527000D01*
X167558866Y-93527000D01*
X167648187Y-93616321D01*
X167915391Y-93727000D01*
X168204609Y-93727000D01*
X168425701Y-93635421D01*
X168689615Y-93744737D01*
X168978833Y-93744737D01*
X169246037Y-93634058D01*
X169450545Y-93429550D01*
X169561224Y-93162346D01*
X169561224Y-92873128D01*
X169450545Y-92605924D01*
X169355024Y-92510403D01*
X169330647Y-92387848D01*
X169265759Y-92290737D01*
X169243570Y-92257528D01*
X169243567Y-92257525D01*
X169214169Y-92213528D01*
X169170171Y-92184129D01*
X168900096Y-91914055D01*
X168870696Y-91870055D01*
X168696376Y-91753577D01*
X168542654Y-91723000D01*
X168542649Y-91723000D01*
X168490751Y-91712677D01*
X168438853Y-91723000D01*
X166158291Y-91723000D01*
X165727000Y-91291710D01*
X165727000Y-91277000D01*
X171531710Y-91277000D01*
X171973000Y-91718291D01*
X171973001Y-93248865D01*
X171883679Y-93338187D01*
X171773000Y-93605391D01*
X171773000Y-93894609D01*
X171883679Y-94161813D01*
X172088187Y-94366321D01*
X172355391Y-94477000D01*
X172644609Y-94477000D01*
X172911813Y-94366321D01*
X173116321Y-94161813D01*
X173227000Y-93894609D01*
X173227000Y-93605391D01*
X173116321Y-93338187D01*
X173027000Y-93248866D01*
X173027000Y-91551897D01*
X173037323Y-91499999D01*
X173027000Y-91448101D01*
X173027000Y-91448097D01*
X172996423Y-91294375D01*
X172964382Y-91246422D01*
X172909346Y-91164055D01*
X172909343Y-91164052D01*
X172879945Y-91120055D01*
X172835948Y-91090657D01*
X172378175Y-90632884D01*
X172605391Y-90727000D01*
X172894609Y-90727000D01*
X173161813Y-90616321D01*
X173366321Y-90411813D01*
X173477000Y-90144609D01*
X173477000Y-89855391D01*
X173366321Y-89588187D01*
X173161813Y-89383679D01*
X172894609Y-89273000D01*
X172605391Y-89273000D01*
X172338187Y-89383679D01*
X172248866Y-89473000D01*
X163551897Y-89473000D01*
X163499999Y-89462677D01*
X163448101Y-89473000D01*
X163448097Y-89473000D01*
X163294375Y-89503577D01*
X163294373Y-89503578D01*
X163294374Y-89503578D01*
X163164055Y-89590654D01*
X163164052Y-89590657D01*
X163120055Y-89620055D01*
X163090656Y-89664053D01*
X162527000Y-90227710D01*
X162527000Y-87218290D01*
X162968291Y-86777000D01*
X170748866Y-86777000D01*
X170838187Y-86866321D01*
X171105391Y-86977000D01*
X171394609Y-86977000D01*
X171661813Y-86866321D01*
X171866321Y-86661813D01*
X171977000Y-86394609D01*
X171977000Y-86105391D01*
X171866321Y-85838187D01*
X171661813Y-85633679D01*
X171593520Y-85605391D01*
X173773000Y-85605391D01*
X173773000Y-85894609D01*
X173873000Y-86136032D01*
X173873001Y-94363966D01*
X173773000Y-94605391D01*
X173773000Y-94894609D01*
X173883679Y-95161813D01*
X174088187Y-95366321D01*
X174355391Y-95477000D01*
X174644609Y-95477000D01*
X174911813Y-95366321D01*
X175116321Y-95161813D01*
X175227000Y-94894609D01*
X175227000Y-94605391D01*
X175127000Y-94363969D01*
X175127000Y-86136031D01*
X175227000Y-85894609D01*
X175227000Y-85605391D01*
X175116321Y-85338187D01*
X174911813Y-85133679D01*
X174644609Y-85023000D01*
X174355391Y-85023000D01*
X174088187Y-85133679D01*
X173883679Y-85338187D01*
X173773000Y-85605391D01*
X171593520Y-85605391D01*
X171394609Y-85523000D01*
X171105391Y-85523000D01*
X170838187Y-85633679D01*
X170748866Y-85723000D01*
X162801897Y-85723000D01*
X162749999Y-85712677D01*
X162698101Y-85723000D01*
X162698097Y-85723000D01*
X162544375Y-85753577D01*
X162544373Y-85753578D01*
X162544374Y-85753578D01*
X162414055Y-85840654D01*
X162414052Y-85840657D01*
X162370055Y-85870055D01*
X162340656Y-85914053D01*
X161664053Y-86590657D01*
X161620056Y-86620055D01*
X161590658Y-86664052D01*
X161590654Y-86664056D01*
X161503578Y-86794375D01*
X161462677Y-87000000D01*
X161473001Y-87051903D01*
X161473000Y-94031709D01*
X161221710Y-94283000D01*
X156251134Y-94283000D01*
X156161813Y-94193679D01*
X155894609Y-94083000D01*
X155605391Y-94083000D01*
X155377000Y-94177602D01*
X155377000Y-92627000D01*
X156363969Y-92627000D01*
X156605391Y-92727000D01*
X156894609Y-92727000D01*
X157161813Y-92616321D01*
X157366321Y-92411813D01*
X157477000Y-92144609D01*
X157477000Y-91855391D01*
X157366321Y-91588187D01*
X157161813Y-91383679D01*
X156894609Y-91273000D01*
X156605391Y-91273000D01*
X156363969Y-91373000D01*
X155061744Y-91373000D01*
X154999999Y-91360718D01*
X154938254Y-91373000D01*
X154938250Y-91373000D01*
X154755357Y-91409380D01*
X154547959Y-91547959D01*
X154512979Y-91600310D01*
X154350308Y-91762981D01*
X154297960Y-91797959D01*
X154262982Y-91850307D01*
X154262981Y-91850308D01*
X154159380Y-92005358D01*
X154110718Y-92250000D01*
X154123001Y-92311751D01*
X154123000Y-93188249D01*
X154123000Y-94090289D01*
X152590289Y-95623000D01*
X151561746Y-95623000D01*
X151500000Y-95610718D01*
X151438254Y-95623000D01*
X146227000Y-95623000D01*
X146227000Y-95445391D01*
X146116321Y-95178187D01*
X146027000Y-95088866D01*
X146027000Y-94301897D01*
X146037323Y-94249999D01*
X146027000Y-94198101D01*
X146027000Y-94198097D01*
X145996423Y-94044375D01*
X145879945Y-93870055D01*
X145835942Y-93840653D01*
X145659346Y-93664056D01*
X145629945Y-93620055D01*
X145455625Y-93503577D01*
X145301903Y-93473000D01*
X145301898Y-93473000D01*
X145250000Y-93462677D01*
X145198102Y-93473000D01*
X142305134Y-93473000D01*
X142366321Y-93411813D01*
X142477000Y-93144609D01*
X142477000Y-92855391D01*
X142463571Y-92822970D01*
X145856635Y-92822970D01*
X145875897Y-93023317D01*
X146251925Y-93142103D01*
X146644787Y-93107947D01*
X146849103Y-93023317D01*
X146868365Y-92822970D01*
X147281635Y-92822970D01*
X147300897Y-93023317D01*
X147676925Y-93142103D01*
X148069787Y-93107947D01*
X148274103Y-93023317D01*
X148293365Y-92822970D01*
X148706635Y-92822970D01*
X148725897Y-93023317D01*
X149101925Y-93142103D01*
X149494787Y-93107947D01*
X149699103Y-93023317D01*
X149718365Y-92822970D01*
X150131635Y-92822970D01*
X150150897Y-93023317D01*
X150526925Y-93142103D01*
X150919787Y-93107947D01*
X151124103Y-93023317D01*
X151143365Y-92822970D01*
X150637500Y-92317105D01*
X150131635Y-92822970D01*
X149718365Y-92822970D01*
X149212500Y-92317105D01*
X148706635Y-92822970D01*
X148293365Y-92822970D01*
X147787500Y-92317105D01*
X147281635Y-92822970D01*
X146868365Y-92822970D01*
X146362500Y-92317105D01*
X145856635Y-92822970D01*
X142463571Y-92822970D01*
X142377000Y-92613969D01*
X142377000Y-92026925D01*
X145357897Y-92026925D01*
X145392053Y-92419787D01*
X145476683Y-92624103D01*
X145677030Y-92643365D01*
X146182895Y-92137500D01*
X146542105Y-92137500D01*
X146816354Y-92411749D01*
X146817053Y-92419787D01*
X146901683Y-92624103D01*
X147042220Y-92637615D01*
X147047970Y-92643365D01*
X147075000Y-92640766D01*
X147102030Y-92643365D01*
X147107780Y-92637615D01*
X147248317Y-92624103D01*
X147306973Y-92438422D01*
X147607895Y-92137500D01*
X147967105Y-92137500D01*
X148241354Y-92411749D01*
X148242053Y-92419787D01*
X148326683Y-92624103D01*
X148467220Y-92637615D01*
X148472970Y-92643365D01*
X148500000Y-92640766D01*
X148527030Y-92643365D01*
X148532780Y-92637615D01*
X148673317Y-92624103D01*
X148731973Y-92438422D01*
X149032895Y-92137500D01*
X149392105Y-92137500D01*
X149666354Y-92411749D01*
X149667053Y-92419787D01*
X149751683Y-92624103D01*
X149892220Y-92637615D01*
X149897970Y-92643365D01*
X149925000Y-92640766D01*
X149952030Y-92643365D01*
X149957780Y-92637615D01*
X150098317Y-92624103D01*
X150156973Y-92438422D01*
X150457895Y-92137500D01*
X150817105Y-92137500D01*
X151322970Y-92643365D01*
X151523317Y-92624103D01*
X151642103Y-92248075D01*
X151607947Y-91855213D01*
X151523317Y-91650897D01*
X151322970Y-91631635D01*
X150817105Y-92137500D01*
X150457895Y-92137500D01*
X150183646Y-91863251D01*
X150182947Y-91855213D01*
X150098317Y-91650897D01*
X149957780Y-91637385D01*
X149952030Y-91631635D01*
X149925000Y-91634234D01*
X149897970Y-91631635D01*
X149892220Y-91637385D01*
X149751683Y-91650897D01*
X149693027Y-91836578D01*
X149392105Y-92137500D01*
X149032895Y-92137500D01*
X148758646Y-91863251D01*
X148757947Y-91855213D01*
X148673317Y-91650897D01*
X148532780Y-91637385D01*
X148527030Y-91631635D01*
X148500000Y-91634234D01*
X148472970Y-91631635D01*
X148467220Y-91637385D01*
X148326683Y-91650897D01*
X148268027Y-91836578D01*
X147967105Y-92137500D01*
X147607895Y-92137500D01*
X147333646Y-91863251D01*
X147332947Y-91855213D01*
X147248317Y-91650897D01*
X147107780Y-91637385D01*
X147102030Y-91631635D01*
X147075000Y-91634234D01*
X147047970Y-91631635D01*
X147042220Y-91637385D01*
X146901683Y-91650897D01*
X146843027Y-91836578D01*
X146542105Y-92137500D01*
X146182895Y-92137500D01*
X145677030Y-91631635D01*
X145476683Y-91650897D01*
X145357897Y-92026925D01*
X142377000Y-92026925D01*
X142377000Y-91397970D01*
X145856635Y-91397970D01*
X145859234Y-91425000D01*
X145856635Y-91452030D01*
X145862385Y-91457780D01*
X145875897Y-91598317D01*
X146061578Y-91656973D01*
X146362500Y-91957895D01*
X146636749Y-91683646D01*
X146644787Y-91682947D01*
X146849103Y-91598317D01*
X146862615Y-91457780D01*
X146868365Y-91452030D01*
X146865766Y-91425000D01*
X146868365Y-91397970D01*
X147281635Y-91397970D01*
X147284234Y-91425000D01*
X147281635Y-91452030D01*
X147287385Y-91457780D01*
X147300897Y-91598317D01*
X147486578Y-91656973D01*
X147787500Y-91957895D01*
X148061749Y-91683646D01*
X148069787Y-91682947D01*
X148274103Y-91598317D01*
X148287615Y-91457780D01*
X148293365Y-91452030D01*
X148290766Y-91425000D01*
X148293365Y-91397970D01*
X148706635Y-91397970D01*
X148709234Y-91425000D01*
X148706635Y-91452030D01*
X148712385Y-91457780D01*
X148725897Y-91598317D01*
X148911578Y-91656973D01*
X149212500Y-91957895D01*
X149486749Y-91683646D01*
X149494787Y-91682947D01*
X149699103Y-91598317D01*
X149712615Y-91457780D01*
X149718365Y-91452030D01*
X149715766Y-91425000D01*
X149718365Y-91397970D01*
X150131635Y-91397970D01*
X150134234Y-91425000D01*
X150131635Y-91452030D01*
X150137385Y-91457780D01*
X150150897Y-91598317D01*
X150336578Y-91656973D01*
X150637500Y-91957895D01*
X150911749Y-91683646D01*
X150919787Y-91682947D01*
X151124103Y-91598317D01*
X151137615Y-91457780D01*
X151143365Y-91452030D01*
X151140766Y-91425000D01*
X151143365Y-91397970D01*
X151137615Y-91392220D01*
X151124103Y-91251683D01*
X150938422Y-91193027D01*
X150637500Y-90892105D01*
X150363251Y-91166354D01*
X150355213Y-91167053D01*
X150150897Y-91251683D01*
X150137385Y-91392220D01*
X150131635Y-91397970D01*
X149718365Y-91397970D01*
X149712615Y-91392220D01*
X149699103Y-91251683D01*
X149513422Y-91193027D01*
X149212500Y-90892105D01*
X148938251Y-91166354D01*
X148930213Y-91167053D01*
X148725897Y-91251683D01*
X148712385Y-91392220D01*
X148706635Y-91397970D01*
X148293365Y-91397970D01*
X148287615Y-91392220D01*
X148274103Y-91251683D01*
X148088422Y-91193027D01*
X147787500Y-90892105D01*
X147513251Y-91166354D01*
X147505213Y-91167053D01*
X147300897Y-91251683D01*
X147287385Y-91392220D01*
X147281635Y-91397970D01*
X146868365Y-91397970D01*
X146862615Y-91392220D01*
X146849103Y-91251683D01*
X146663422Y-91193027D01*
X146362500Y-90892105D01*
X146088251Y-91166354D01*
X146080213Y-91167053D01*
X145875897Y-91251683D01*
X145862385Y-91392220D01*
X145856635Y-91397970D01*
X142377000Y-91397970D01*
X142377000Y-90386031D01*
X142477000Y-90144609D01*
X142477000Y-89855391D01*
X142377000Y-89613969D01*
X142377000Y-89372290D01*
X143340656Y-90335947D01*
X143370055Y-90379945D01*
X143414052Y-90409343D01*
X143414055Y-90409346D01*
X143544374Y-90496423D01*
X143576387Y-90502791D01*
X143698097Y-90527000D01*
X143698101Y-90527000D01*
X143750000Y-90537323D01*
X143801899Y-90527000D01*
X145381566Y-90527000D01*
X145357897Y-90601925D01*
X145392053Y-90994787D01*
X145476683Y-91199103D01*
X145677030Y-91218365D01*
X146182895Y-90712500D01*
X146168753Y-90698358D01*
X146340110Y-90527000D01*
X146356605Y-90527000D01*
X146362500Y-90532895D01*
X146368395Y-90527000D01*
X146384890Y-90527000D01*
X146556248Y-90698358D01*
X146542105Y-90712500D01*
X146816354Y-90986749D01*
X146817053Y-90994787D01*
X146901683Y-91199103D01*
X147042220Y-91212615D01*
X147047970Y-91218365D01*
X147075000Y-91215766D01*
X147102030Y-91218365D01*
X147107780Y-91212615D01*
X147248317Y-91199103D01*
X147306973Y-91013422D01*
X147607895Y-90712500D01*
X147593753Y-90698358D01*
X147765110Y-90527000D01*
X147781605Y-90527000D01*
X147787500Y-90532895D01*
X147793395Y-90527000D01*
X147809890Y-90527000D01*
X147981248Y-90698358D01*
X147967105Y-90712500D01*
X148241354Y-90986749D01*
X148242053Y-90994787D01*
X148326683Y-91199103D01*
X148467220Y-91212615D01*
X148472970Y-91218365D01*
X148500000Y-91215766D01*
X148527030Y-91218365D01*
X148532780Y-91212615D01*
X148673317Y-91199103D01*
X148731973Y-91013422D01*
X149032895Y-90712500D01*
X149018753Y-90698358D01*
X149190110Y-90527000D01*
X149206605Y-90527000D01*
X149212500Y-90532895D01*
X149218395Y-90527000D01*
X149234890Y-90527000D01*
X149406248Y-90698358D01*
X149392105Y-90712500D01*
X149666354Y-90986749D01*
X149667053Y-90994787D01*
X149751683Y-91199103D01*
X149892220Y-91212615D01*
X149897970Y-91218365D01*
X149925000Y-91215766D01*
X149952030Y-91218365D01*
X149957780Y-91212615D01*
X150098317Y-91199103D01*
X150156973Y-91013422D01*
X150457895Y-90712500D01*
X150443753Y-90698358D01*
X150615110Y-90527000D01*
X150631605Y-90527000D01*
X150637500Y-90532895D01*
X150643395Y-90527000D01*
X150659890Y-90527000D01*
X150831248Y-90698358D01*
X150817105Y-90712500D01*
X151322970Y-91218365D01*
X151523317Y-91199103D01*
X151642103Y-90823075D01*
X151616362Y-90527000D01*
X152984429Y-90527000D01*
X153126664Y-90669235D01*
X153393868Y-90779914D01*
X153683086Y-90779914D01*
X153950290Y-90669235D01*
X154154798Y-90464727D01*
X154265477Y-90197523D01*
X154265477Y-89908305D01*
X154224235Y-89808737D01*
X154221378Y-89794375D01*
X154213243Y-89782200D01*
X154154798Y-89641101D01*
X153950290Y-89436593D01*
X153683086Y-89325914D01*
X153393868Y-89325914D01*
X153126664Y-89436593D01*
X153090257Y-89473000D01*
X151618434Y-89473000D01*
X151642103Y-89398075D01*
X151607947Y-89005213D01*
X151523317Y-88800897D01*
X151322970Y-88781635D01*
X150817105Y-89287500D01*
X150831248Y-89301643D01*
X150659890Y-89473000D01*
X150643395Y-89473000D01*
X150637500Y-89467105D01*
X150631605Y-89473000D01*
X150615110Y-89473000D01*
X150443753Y-89301643D01*
X150457895Y-89287500D01*
X150183646Y-89013251D01*
X150182947Y-89005213D01*
X150098317Y-88800897D01*
X149957780Y-88787385D01*
X149952030Y-88781635D01*
X149925000Y-88784234D01*
X149897970Y-88781635D01*
X149892220Y-88787385D01*
X149751683Y-88800897D01*
X149693027Y-88986578D01*
X149392105Y-89287500D01*
X149406248Y-89301643D01*
X149234890Y-89473000D01*
X149218395Y-89473000D01*
X149212500Y-89467105D01*
X149206605Y-89473000D01*
X149190110Y-89473000D01*
X149018753Y-89301643D01*
X149032895Y-89287500D01*
X148758646Y-89013251D01*
X148757947Y-89005213D01*
X148673317Y-88800897D01*
X148532780Y-88787385D01*
X148527030Y-88781635D01*
X148500000Y-88784234D01*
X148472970Y-88781635D01*
X148467220Y-88787385D01*
X148326683Y-88800897D01*
X148268027Y-88986578D01*
X147967105Y-89287500D01*
X147981248Y-89301643D01*
X147809890Y-89473000D01*
X147793395Y-89473000D01*
X147787500Y-89467105D01*
X147781605Y-89473000D01*
X147765110Y-89473000D01*
X147593753Y-89301643D01*
X147607895Y-89287500D01*
X147333646Y-89013251D01*
X147332947Y-89005213D01*
X147248317Y-88800897D01*
X147107780Y-88787385D01*
X147102030Y-88781635D01*
X147075000Y-88784234D01*
X147047970Y-88781635D01*
X147042220Y-88787385D01*
X146901683Y-88800897D01*
X146843027Y-88986578D01*
X146542105Y-89287500D01*
X146556248Y-89301643D01*
X146384890Y-89473000D01*
X146368395Y-89473000D01*
X146362500Y-89467105D01*
X146356605Y-89473000D01*
X146340110Y-89473000D01*
X146168753Y-89301643D01*
X146182895Y-89287500D01*
X145677030Y-88781635D01*
X145476683Y-88800897D01*
X145357897Y-89176925D01*
X145383638Y-89473000D01*
X143968291Y-89473000D01*
X143043261Y-88547970D01*
X145856635Y-88547970D01*
X145859234Y-88575000D01*
X145856635Y-88602030D01*
X145862385Y-88607780D01*
X145875897Y-88748317D01*
X146061578Y-88806973D01*
X146362500Y-89107895D01*
X146636749Y-88833646D01*
X146644787Y-88832947D01*
X146849103Y-88748317D01*
X146862615Y-88607780D01*
X146868365Y-88602030D01*
X146865766Y-88575000D01*
X146868365Y-88547970D01*
X147281635Y-88547970D01*
X147284234Y-88575000D01*
X147281635Y-88602030D01*
X147287385Y-88607780D01*
X147300897Y-88748317D01*
X147486578Y-88806973D01*
X147787500Y-89107895D01*
X148061749Y-88833646D01*
X148069787Y-88832947D01*
X148274103Y-88748317D01*
X148287615Y-88607780D01*
X148293365Y-88602030D01*
X148290766Y-88575000D01*
X148293365Y-88547970D01*
X148706635Y-88547970D01*
X148709234Y-88575000D01*
X148706635Y-88602030D01*
X148712385Y-88607780D01*
X148725897Y-88748317D01*
X148911578Y-88806973D01*
X149212500Y-89107895D01*
X149486749Y-88833646D01*
X149494787Y-88832947D01*
X149699103Y-88748317D01*
X149712615Y-88607780D01*
X149718365Y-88602030D01*
X149715766Y-88575000D01*
X149718365Y-88547970D01*
X150131635Y-88547970D01*
X150134234Y-88575000D01*
X150131635Y-88602030D01*
X150137385Y-88607780D01*
X150150897Y-88748317D01*
X150336578Y-88806973D01*
X150637500Y-89107895D01*
X150911749Y-88833646D01*
X150919787Y-88832947D01*
X151124103Y-88748317D01*
X151137615Y-88607780D01*
X151143365Y-88602030D01*
X151140766Y-88575000D01*
X151143365Y-88547970D01*
X151137615Y-88542220D01*
X151124103Y-88401683D01*
X150938422Y-88343027D01*
X150637500Y-88042105D01*
X150363251Y-88316354D01*
X150355213Y-88317053D01*
X150150897Y-88401683D01*
X150137385Y-88542220D01*
X150131635Y-88547970D01*
X149718365Y-88547970D01*
X149712615Y-88542220D01*
X149699103Y-88401683D01*
X149513422Y-88343027D01*
X149212500Y-88042105D01*
X148938251Y-88316354D01*
X148930213Y-88317053D01*
X148725897Y-88401683D01*
X148712385Y-88542220D01*
X148706635Y-88547970D01*
X148293365Y-88547970D01*
X148287615Y-88542220D01*
X148274103Y-88401683D01*
X148088422Y-88343027D01*
X147787500Y-88042105D01*
X147513251Y-88316354D01*
X147505213Y-88317053D01*
X147300897Y-88401683D01*
X147287385Y-88542220D01*
X147281635Y-88547970D01*
X146868365Y-88547970D01*
X146862615Y-88542220D01*
X146849103Y-88401683D01*
X146663422Y-88343027D01*
X146362500Y-88042105D01*
X146088251Y-88316354D01*
X146080213Y-88317053D01*
X145875897Y-88401683D01*
X145862385Y-88542220D01*
X145856635Y-88547970D01*
X143043261Y-88547970D01*
X143020861Y-88525571D01*
X143020861Y-87759904D01*
X143028840Y-87751925D01*
X145357897Y-87751925D01*
X145392053Y-88144787D01*
X145476683Y-88349103D01*
X145677030Y-88368365D01*
X146182895Y-87862500D01*
X146542105Y-87862500D01*
X146816354Y-88136749D01*
X146817053Y-88144787D01*
X146901683Y-88349103D01*
X147042220Y-88362615D01*
X147047970Y-88368365D01*
X147075000Y-88365766D01*
X147102030Y-88368365D01*
X147107780Y-88362615D01*
X147248317Y-88349103D01*
X147306973Y-88163422D01*
X147607895Y-87862500D01*
X147967105Y-87862500D01*
X148241354Y-88136749D01*
X148242053Y-88144787D01*
X148326683Y-88349103D01*
X148467220Y-88362615D01*
X148472970Y-88368365D01*
X148500000Y-88365766D01*
X148527030Y-88368365D01*
X148532780Y-88362615D01*
X148673317Y-88349103D01*
X148731973Y-88163422D01*
X149032895Y-87862500D01*
X149392105Y-87862500D01*
X149666354Y-88136749D01*
X149667053Y-88144787D01*
X149751683Y-88349103D01*
X149892220Y-88362615D01*
X149897970Y-88368365D01*
X149925000Y-88365766D01*
X149952030Y-88368365D01*
X149957780Y-88362615D01*
X150098317Y-88349103D01*
X150156973Y-88163422D01*
X150457895Y-87862500D01*
X150817105Y-87862500D01*
X151322970Y-88368365D01*
X151523317Y-88349103D01*
X151642103Y-87973075D01*
X151607947Y-87580213D01*
X151523317Y-87375897D01*
X151322970Y-87356635D01*
X150817105Y-87862500D01*
X150457895Y-87862500D01*
X150183646Y-87588251D01*
X150182947Y-87580213D01*
X150098317Y-87375897D01*
X149957780Y-87362385D01*
X149952030Y-87356635D01*
X149925000Y-87359234D01*
X149897970Y-87356635D01*
X149892220Y-87362385D01*
X149751683Y-87375897D01*
X149693027Y-87561578D01*
X149392105Y-87862500D01*
X149032895Y-87862500D01*
X148758646Y-87588251D01*
X148757947Y-87580213D01*
X148673317Y-87375897D01*
X148532780Y-87362385D01*
X148527030Y-87356635D01*
X148500000Y-87359234D01*
X148472970Y-87356635D01*
X148467220Y-87362385D01*
X148326683Y-87375897D01*
X148268027Y-87561578D01*
X147967105Y-87862500D01*
X147607895Y-87862500D01*
X147333646Y-87588251D01*
X147332947Y-87580213D01*
X147248317Y-87375897D01*
X147107780Y-87362385D01*
X147102030Y-87356635D01*
X147075000Y-87359234D01*
X147047970Y-87356635D01*
X147042220Y-87362385D01*
X146901683Y-87375897D01*
X146843027Y-87561578D01*
X146542105Y-87862500D01*
X146182895Y-87862500D01*
X145677030Y-87356635D01*
X145476683Y-87375897D01*
X145357897Y-87751925D01*
X143028840Y-87751925D01*
X143110182Y-87670583D01*
X143220861Y-87403379D01*
X143220861Y-87177030D01*
X145856635Y-87177030D01*
X146362500Y-87682895D01*
X146868365Y-87177030D01*
X147281635Y-87177030D01*
X147787500Y-87682895D01*
X148293365Y-87177030D01*
X148706635Y-87177030D01*
X149212500Y-87682895D01*
X149718365Y-87177030D01*
X150131635Y-87177030D01*
X150637500Y-87682895D01*
X151143365Y-87177030D01*
X151124103Y-86976683D01*
X150748075Y-86857897D01*
X150355213Y-86892053D01*
X150150897Y-86976683D01*
X150131635Y-87177030D01*
X149718365Y-87177030D01*
X149699103Y-86976683D01*
X149323075Y-86857897D01*
X148930213Y-86892053D01*
X148725897Y-86976683D01*
X148706635Y-87177030D01*
X148293365Y-87177030D01*
X148274103Y-86976683D01*
X147898075Y-86857897D01*
X147505213Y-86892053D01*
X147300897Y-86976683D01*
X147281635Y-87177030D01*
X146868365Y-87177030D01*
X146849103Y-86976683D01*
X146473075Y-86857897D01*
X146080213Y-86892053D01*
X145875897Y-86976683D01*
X145856635Y-87177030D01*
X143220861Y-87177030D01*
X143220861Y-87114161D01*
X143110182Y-86846957D01*
X142905674Y-86642449D01*
X142638470Y-86531770D01*
X142477000Y-86531770D01*
X142477000Y-86355391D01*
X142377000Y-86113969D01*
X142377000Y-85859711D01*
X143059712Y-85177000D01*
X145138254Y-85177000D01*
X145200000Y-85189282D01*
X145261746Y-85177000D01*
X145261750Y-85177000D01*
X145444643Y-85140620D01*
X145652041Y-85002041D01*
X145687020Y-84949691D01*
X147009712Y-83627000D01*
X147113969Y-83627000D01*
X147355391Y-83727000D01*
X147644609Y-83727000D01*
X147886031Y-83627000D01*
X152338254Y-83627000D01*
X152400000Y-83639282D01*
X152461746Y-83627000D01*
X152461750Y-83627000D01*
X152644643Y-83590620D01*
X152852041Y-83452041D01*
X152887020Y-83399691D01*
X153859712Y-82427000D01*
X161790289Y-82427000D01*
X162512981Y-83149693D01*
X162547959Y-83202041D01*
X162755357Y-83340620D01*
X162938250Y-83377000D01*
X162938254Y-83377000D01*
X163000000Y-83389282D01*
X163061746Y-83377000D01*
X167113969Y-83377000D01*
X167355391Y-83477000D01*
X167644609Y-83477000D01*
X167886031Y-83377000D01*
X169863969Y-83377000D01*
X170105391Y-83477000D01*
X170394609Y-83477000D01*
X170661813Y-83366321D01*
X170866321Y-83161813D01*
X170977000Y-82894609D01*
X170977000Y-82605391D01*
X170866321Y-82338187D01*
X170661813Y-82133679D01*
X170394609Y-82023000D01*
X170105391Y-82023000D01*
X169863969Y-82123000D01*
X167886031Y-82123000D01*
X167644609Y-82023000D01*
X167355391Y-82023000D01*
X167113969Y-82123000D01*
X163259712Y-82123000D01*
X162913711Y-81777000D01*
X163248866Y-81777000D01*
X163338187Y-81866321D01*
X163605391Y-81977000D01*
X163894609Y-81977000D01*
X164161813Y-81866321D01*
X164366321Y-81661813D01*
X164375000Y-81640860D01*
X164383679Y-81661813D01*
X164588187Y-81866321D01*
X164855391Y-81977000D01*
X165144609Y-81977000D01*
X165411813Y-81866321D01*
X165616321Y-81661813D01*
X165727000Y-81394609D01*
X165727000Y-81105391D01*
X165616321Y-80838187D01*
X165411813Y-80633679D01*
X165144609Y-80523000D01*
X165018291Y-80523000D01*
X164659345Y-80164055D01*
X164629945Y-80120055D01*
X164455625Y-80003577D01*
X164301903Y-79973000D01*
X164301898Y-79973000D01*
X164250000Y-79962677D01*
X164198102Y-79973000D01*
X162944530Y-79973000D01*
X162977000Y-79894609D01*
X162977000Y-79605391D01*
X162866321Y-79338187D01*
X162661813Y-79133679D01*
X162394609Y-79023000D01*
X162173819Y-79023000D01*
X162227000Y-78894609D01*
X162227000Y-78605391D01*
X162116321Y-78338187D01*
X161911813Y-78133679D01*
X161644609Y-78023000D01*
X161355391Y-78023000D01*
X161088187Y-78133679D01*
X160998866Y-78223000D01*
X152501134Y-78223000D01*
X152411813Y-78133679D01*
X152144609Y-78023000D01*
X151855391Y-78023000D01*
X151588187Y-78133679D01*
X151383679Y-78338187D01*
X151273000Y-78605391D01*
X151273000Y-78894609D01*
X151383679Y-79161813D01*
X151471866Y-79250000D01*
X151383679Y-79338187D01*
X151273000Y-79605391D01*
X151273000Y-79894609D01*
X151383679Y-80161813D01*
X151588187Y-80366321D01*
X151855391Y-80477000D01*
X152144609Y-80477000D01*
X152411813Y-80366321D01*
X152501134Y-80277000D01*
X152555470Y-80277000D01*
X152523000Y-80355391D01*
X152523000Y-80576181D01*
X152394609Y-80523000D01*
X152105391Y-80523000D01*
X151838187Y-80633679D01*
X151633679Y-80838187D01*
X151523000Y-81105391D01*
X151523000Y-81394609D01*
X151633679Y-81661813D01*
X151838187Y-81866321D01*
X152105391Y-81977000D01*
X152394609Y-81977000D01*
X152523000Y-81923819D01*
X152523000Y-81990289D01*
X152140289Y-82373000D01*
X147886031Y-82373000D01*
X147644609Y-82273000D01*
X147355391Y-82273000D01*
X147113969Y-82373000D01*
X146811745Y-82373000D01*
X146749999Y-82360718D01*
X146688253Y-82373000D01*
X146688250Y-82373000D01*
X146505357Y-82409380D01*
X146297959Y-82547959D01*
X146262981Y-82600307D01*
X144940289Y-83923000D01*
X142861744Y-83923000D01*
X142799999Y-83910718D01*
X142738254Y-83923000D01*
X142738250Y-83923000D01*
X142555357Y-83959380D01*
X142347959Y-84097959D01*
X142312981Y-84150307D01*
X141350307Y-85112982D01*
X141297960Y-85147959D01*
X141262982Y-85200307D01*
X141262981Y-85200308D01*
X141159380Y-85355358D01*
X141110718Y-85600000D01*
X141123001Y-85661751D01*
X141123000Y-86113967D01*
X141023000Y-86355391D01*
X141023000Y-86644609D01*
X141123001Y-86886034D01*
X141123000Y-89613968D01*
X141023000Y-89855391D01*
X141023000Y-90144609D01*
X141123000Y-90386032D01*
X141123001Y-92613966D01*
X141023000Y-92855391D01*
X141023000Y-93144609D01*
X141133679Y-93411813D01*
X141194866Y-93473000D01*
X140727000Y-93473000D01*
X140727000Y-93295391D01*
X140627000Y-93053969D01*
X140627000Y-91136031D01*
X140727000Y-90894609D01*
X140727000Y-90605391D01*
X140616321Y-90338187D01*
X140411813Y-90133679D01*
X140144609Y-90023000D01*
X139855391Y-90023000D01*
X139588187Y-90133679D01*
X139383679Y-90338187D01*
X139273000Y-90605391D01*
X139273000Y-90894609D01*
X139373000Y-91136032D01*
X139373001Y-93053966D01*
X139273000Y-93295391D01*
X139273000Y-93473000D01*
X132051899Y-93473000D01*
X132000000Y-93462677D01*
X131948101Y-93473000D01*
X131948097Y-93473000D01*
X131803560Y-93501750D01*
X131794375Y-93503577D01*
X131664055Y-93590654D01*
X131664052Y-93590657D01*
X131620055Y-93620055D01*
X131590656Y-93664053D01*
X130664055Y-94590655D01*
X130620055Y-94620055D01*
X130590655Y-94664055D01*
X130590654Y-94664056D01*
X130562879Y-94705624D01*
X130503577Y-94794376D01*
X130473000Y-94948098D01*
X130473000Y-94948102D01*
X130462677Y-95000000D01*
X130473000Y-95051898D01*
X130473001Y-95781709D01*
X130211700Y-96043010D01*
X129412476Y-96043010D01*
X129348155Y-95978689D01*
X129080951Y-95868010D01*
X128791733Y-95868010D01*
X128524529Y-95978689D01*
X128320021Y-96183197D01*
X128209342Y-96450401D01*
X115527000Y-96450401D01*
X115527000Y-93605391D01*
X125273000Y-93605391D01*
X125273000Y-93894609D01*
X125383679Y-94161813D01*
X125588187Y-94366321D01*
X125855391Y-94477000D01*
X126144609Y-94477000D01*
X126411813Y-94366321D01*
X126476134Y-94302000D01*
X127858001Y-94302000D01*
X128104335Y-94670665D01*
X128526740Y-94952907D01*
X128899231Y-95027000D01*
X129400769Y-95027000D01*
X129773260Y-94952907D01*
X130195665Y-94670665D01*
X130477907Y-94248260D01*
X130577017Y-93750000D01*
X130477907Y-93251740D01*
X130195665Y-92829335D01*
X129773260Y-92547093D01*
X129536507Y-92500000D01*
X129773260Y-92452907D01*
X130195665Y-92170665D01*
X130477907Y-91748260D01*
X130577017Y-91250000D01*
X130477907Y-90751740D01*
X130195665Y-90329335D01*
X129773260Y-90047093D01*
X129536507Y-90000000D01*
X129773260Y-89952907D01*
X130195665Y-89670665D01*
X130477907Y-89248260D01*
X130577017Y-88750000D01*
X130477907Y-88251740D01*
X130195665Y-87829335D01*
X130054483Y-87735000D01*
X130251310Y-87735000D01*
X130484699Y-87638327D01*
X130663327Y-87459698D01*
X130760000Y-87226309D01*
X130760000Y-86535750D01*
X130601250Y-86377000D01*
X129277000Y-86377000D01*
X129277000Y-86397000D01*
X129023000Y-86397000D01*
X129023000Y-86377000D01*
X127698750Y-86377000D01*
X127540000Y-86535750D01*
X127540000Y-87226309D01*
X127636673Y-87459698D01*
X127815301Y-87638327D01*
X128048690Y-87735000D01*
X128245517Y-87735000D01*
X128104335Y-87829335D01*
X127822093Y-88251740D01*
X127722983Y-88750000D01*
X127822093Y-89248260D01*
X128104335Y-89670665D01*
X128526740Y-89952907D01*
X128763493Y-90000000D01*
X128526740Y-90047093D01*
X128104335Y-90329335D01*
X127822093Y-90751740D01*
X127722983Y-91250000D01*
X127822093Y-91748260D01*
X128104335Y-92170665D01*
X128526740Y-92452907D01*
X128763493Y-92500000D01*
X128526740Y-92547093D01*
X128104335Y-92829335D01*
X127858001Y-93198000D01*
X126476134Y-93198000D01*
X126411813Y-93133679D01*
X126144609Y-93023000D01*
X125855391Y-93023000D01*
X125588187Y-93133679D01*
X125383679Y-93338187D01*
X125273000Y-93605391D01*
X115527000Y-93605391D01*
X115527000Y-85273691D01*
X127540000Y-85273691D01*
X127540000Y-85964250D01*
X127698750Y-86123000D01*
X129023000Y-86123000D01*
X129023000Y-84923750D01*
X129277000Y-84923750D01*
X129277000Y-86123000D01*
X130601250Y-86123000D01*
X130760000Y-85964250D01*
X130760000Y-85273691D01*
X130663327Y-85040302D01*
X130484699Y-84861673D01*
X130251310Y-84765000D01*
X129435750Y-84765000D01*
X129277000Y-84923750D01*
X129023000Y-84923750D01*
X128864250Y-84765000D01*
X128048690Y-84765000D01*
X127815301Y-84861673D01*
X127636673Y-85040302D01*
X127540000Y-85273691D01*
X115527000Y-85273691D01*
X115527000Y-83152606D01*
X116052606Y-82627000D01*
X121500000Y-82627000D01*
X121548601Y-82617333D01*
X121589803Y-82589803D01*
X122589803Y-81589803D01*
X122617333Y-81548601D01*
X122627000Y-81500000D01*
X122627000Y-76052606D01*
X123152606Y-75527000D01*
X131079326Y-75527000D01*
X131047959Y-75547959D01*
G04 #@! TD*
M02*
